<svg width="25" height="25" viewBox="0 0 25 25" fill="none" xmlns="http://www.w3.org/2000/svg">
<path d="M22.5317 12.025C22.5317 17.821 17.833 22.525 12.0317 22.525C6.23049 22.525 1.53174 17.821 1.53174 12.025C1.53174 6.22377 6.23049 1.52502 12.0317 1.52502C17.833 1.52502 22.5317 6.22377 22.5317 12.025Z" fill="#283544"/>
<path d="M16.9533 9.36806C16.896 9.40149 15.532 10.1069 15.532 11.6709C15.5963 13.4546 17.2533 14.0801 17.2817 14.0801C17.2533 14.1135 17.0316 14.9322 16.3747 15.7904C15.8535 16.5297 15.2749 17.275 14.3963 17.275C13.5606 17.275 13.2606 16.7823 12.2963 16.7823C11.2608 16.7823 10.9677 17.275 10.1749 17.275C9.29631 17.275 8.67488 16.4898 8.12519 15.7574C7.41106 14.799 6.80407 13.2948 6.78264 11.8506C6.7682 11.0853 6.92566 10.333 7.32535 9.69407C7.88948 8.80201 8.89662 8.19645 9.99647 8.17649C10.8392 8.15001 11.5892 8.71563 12.1035 8.71563C12.5963 8.71563 13.5178 8.17649 14.5603 8.17649C15.0103 8.17692 16.2103 8.30324 16.9533 9.36806ZM12.0322 8.02369C11.8822 7.3248 12.2963 6.62591 12.682 6.1801C13.1749 5.64096 13.9533 5.27502 14.6246 5.27502C14.6674 5.97391 14.3959 6.65934 13.9105 7.15854C13.4749 7.69768 12.7249 8.10356 12.0322 8.02369Z" fill="white"/>
</svg>
