<svg width="24" height="25" viewBox="0 0 24 25" fill="none" xmlns="http://www.w3.org/2000/svg">
<path d="M22.5 12.5592C22.5 18.3552 17.8012 23.0592 12 23.0592C6.19875 23.0592 1.5 18.3552 1.5 12.5592C1.5 6.75795 6.19875 2.0592 12 2.0592C17.8012 2.0592 22.5 6.75795 22.5 12.5592Z" fill="#283544"/>
<path d="M16.9216 9.90224C16.8643 9.93567 15.5003 10.6411 15.5003 12.2051C15.5646 13.9888 17.2216 14.6143 17.25 14.6143C17.2216 14.6477 16.9998 15.4664 16.343 16.3246C15.8217 17.0639 15.2432 17.8092 14.3646 17.8092C13.5289 17.8092 13.2289 17.3165 12.2646 17.3165C11.229 17.3165 10.936 17.8092 10.1431 17.8092C9.26458 17.8092 8.64315 17.0239 8.09345 16.2916C7.37932 15.3332 6.77233 13.829 6.7509 12.3848C6.73646 11.6195 6.89392 10.8672 7.29361 10.2282C7.85774 9.33619 8.86489 8.73063 9.96473 8.71067C10.8074 8.68419 11.5574 9.24981 12.0717 9.24981C12.5646 9.24981 13.486 8.71067 14.5286 8.71067C14.9786 8.7111 16.1786 8.83742 16.9216 9.90224ZM12.0005 8.55787C11.8505 7.85898 12.2646 7.16009 12.6503 6.71428C13.1432 6.17514 13.9216 5.8092 14.5929 5.8092C14.6357 6.50809 14.3641 7.19352 13.8787 7.69272C13.4432 8.23186 12.6932 8.63774 12.0005 8.55787Z" fill="white"/>
</svg>
