<svg width="25" height="25" viewBox="0 0 25 25" fill="none" xmlns="http://www.w3.org/2000/svg">
<path d="M23.0328 13.0999C23.0328 12.2366 22.9613 11.6066 22.8066 10.9532H12.7471V14.8499H18.6518C18.5328 15.8182 17.8899 17.2766 16.4613 18.2565L16.4413 18.387L19.6219 20.8017L19.8423 20.8232C21.8661 18.9916 23.0328 16.2965 23.0328 13.0999" fill="#4285F4"/>
<path d="M12.7465 23.3667C15.6393 23.3667 18.0678 22.4333 19.8417 20.8233L16.4607 18.2566C15.556 18.8749 14.3417 19.3066 12.7465 19.3066C9.91316 19.3066 7.50843 17.475 6.65121 14.9433L6.52556 14.9537L3.2183 17.4621L3.17505 17.5799C4.93693 21.0099 8.55597 23.3667 12.7465 23.3667Z" fill="#34A853"/>
<path d="M6.65183 14.9433C6.42565 14.29 6.29475 13.59 6.29475 12.8667C6.29475 12.1433 6.42565 11.4433 6.63993 10.79L6.63394 10.6509L3.28523 8.10222L3.17567 8.15329C2.44951 9.57664 2.03284 11.175 2.03284 12.8667C2.03284 14.5583 2.44951 16.1566 3.17567 17.58L6.65183 14.9433" fill="#FBBC05"/>
<path d="M12.7465 6.42667C14.7584 6.42667 16.1155 7.27833 16.8894 7.99005L19.9132 5.0967C18.0561 3.40504 15.6393 2.3667 12.7465 2.3667C8.556 2.3667 4.93694 4.72335 3.17505 8.15332L6.63933 10.79C7.50845 8.25836 9.9132 6.42667 12.7465 6.42667" fill="#EB4335"/>
</svg>
