<svg width="24" height="25" viewBox="0 0 24 25" fill="none" xmlns="http://www.w3.org/2000/svg">
<path d="M22.501 12.6404C22.501 11.7771 22.4296 11.1471 22.2748 10.4938H12.2153V14.3904H18.12C18.001 15.3588 17.3582 16.8171 15.9296 17.797L15.9096 17.9275L19.0902 20.3422L19.3106 20.3638C21.3343 18.5321 22.501 15.8371 22.501 12.6404" fill="#4285F4"/>
<path d="M12.2147 22.9072C15.1075 22.9072 17.5361 21.9738 19.3099 20.3638L15.929 17.7971C15.0242 18.4154 13.8099 18.8471 12.2147 18.8471C9.38142 18.8471 6.97669 17.0155 6.11947 14.4838L5.99382 14.4942L2.68656 17.0026L2.64331 17.1204C4.40519 20.5504 8.02423 22.9072 12.2147 22.9072Z" fill="#34A853"/>
<path d="M6.1201 14.4838C5.89391 13.8305 5.76301 13.1304 5.76301 12.4072C5.76301 11.6838 5.89391 10.9838 6.1082 10.3305L6.1022 10.1913L2.75349 7.6427L2.64393 7.69377C1.91777 9.11712 1.5011 10.7155 1.5011 12.4072C1.5011 14.0988 1.91777 15.6971 2.64393 17.1204L6.1201 14.4838" fill="#FBBC05"/>
<path d="M12.2148 5.9672C14.2267 5.9672 15.5838 6.81886 16.3576 7.53058L19.3814 4.63723C17.5243 2.94556 15.1076 1.90723 12.2148 1.90723C8.02426 1.90723 4.4052 4.26387 2.64331 7.69385L6.10759 10.3305C6.97672 7.79889 9.38146 5.9672 12.2148 5.9672" fill="#EB4335"/>
</svg>
