<svg width="129" height="136" viewBox="0 0 129 136" fill="none" xmlns="http://www.w3.org/2000/svg">
<path d="M91.4869 54.2357H36.5947C35.3444 54.2357 34.3076 53.1348 34.3076 51.8072C34.3076 50.4797 35.3444 49.3788 36.5947 49.3788H91.4869C92.7372 49.3788 93.774 50.4797 93.774 51.8072C93.774 53.1348 92.7372 54.2357 91.4869 54.2357Z" fill="white" fill-opacity="0.87"/>
<path d="M82.3382 70.4255H45.7434C44.4931 70.4255 43.4562 69.3246 43.4562 67.9971C43.4562 66.6695 44.4931 65.5686 45.7434 65.5686H82.3382C83.5885 65.5686 84.6254 66.6695 84.6254 67.9971C84.6254 69.3246 83.5885 70.4255 82.3382 70.4255Z" fill="white" fill-opacity="0.87"/>
<path d="M70.1399 86.6152H57.9417C56.6913 86.6152 55.6545 85.5143 55.6545 84.1868C55.6545 82.8592 56.6913 81.7583 57.9417 81.7583H70.1399C71.3902 81.7583 72.4271 82.8592 72.4271 84.1868C72.4271 85.5143 71.3902 86.6152 70.1399 86.6152Z" fill="white" fill-opacity="0.87"/>
</svg>
