<svg width="15" height="15" viewBox="0 0 15 15" fill="none" xmlns="http://www.w3.org/2000/svg">
<path d="M12.5101 5.153L9.0101 2.08467C8.68926 1.79769 8.2739 1.63904 7.84344 1.63904C7.41298 1.63904 6.99762 1.79769 6.67677 2.08467L3.17677 5.153C2.99149 5.31871 2.84363 5.52199 2.74305 5.74931C2.64246 5.97663 2.59146 6.22276 2.59344 6.47133V11.5697C2.59344 12.0338 2.77781 12.4789 3.106 12.8071C3.43419 13.1353 3.87931 13.3197 4.34344 13.3197H11.3434C11.8076 13.3197 12.2527 13.1353 12.5809 12.8071C12.9091 12.4789 13.0934 12.0338 13.0934 11.5697V6.4655C13.0946 6.21791 13.0432 5.9729 12.9426 5.74665C12.8421 5.52039 12.6947 5.31806 12.5101 5.153V5.153ZM9.0101 12.153H6.67677V9.23633C6.67677 9.08162 6.73823 8.93325 6.84763 8.82385C6.95702 8.71446 7.1054 8.653 7.2601 8.653H8.42677C8.58148 8.653 8.72985 8.71446 8.83925 8.82385C8.94865 8.93325 9.0101 9.08162 9.0101 9.23633V12.153ZM11.9268 11.5697C11.9268 11.7244 11.8653 11.8727 11.7559 11.9821C11.6465 12.0915 11.4981 12.153 11.3434 12.153H10.1768V9.23633C10.1768 8.7722 9.9924 8.32708 9.66421 7.99889C9.33602 7.67071 8.8909 7.48633 8.42677 7.48633H7.2601C6.79598 7.48633 6.35086 7.67071 6.02267 7.99889C5.69448 8.32708 5.51011 8.7722 5.51011 9.23633V12.153H4.34344C4.18873 12.153 4.04036 12.0915 3.93096 11.9821C3.82156 11.8727 3.76011 11.7244 3.76011 11.5697V6.4655C3.76021 6.38267 3.77795 6.30082 3.81215 6.22539C3.84635 6.14995 3.89622 6.08266 3.95844 6.028L7.45844 2.9655C7.56489 2.87198 7.70174 2.8204 7.84344 2.8204C7.98513 2.8204 8.12199 2.87198 8.22844 2.9655L11.7284 6.028C11.7907 6.08266 11.8405 6.14995 11.8747 6.22539C11.9089 6.30082 11.9267 6.38267 11.9268 6.4655V11.5697Z" fill="#A30000"/>
</svg>
