<svg width="15" height="15" viewBox="0 0 15 15" fill="none" xmlns="http://www.w3.org/2000/svg">
<path d="M13.3792 6.44413L12.7959 6.1233L7.54585 3.20663H7.48169C7.44592 3.19151 7.40881 3.17979 7.37085 3.17163H7.26002H7.15502C7.11517 3.1798 7.07612 3.19151 7.03835 3.20663H6.97419L1.72419 6.1233C1.63441 6.17418 1.55974 6.24795 1.50779 6.33711C1.45584 6.42627 1.42847 6.52761 1.42847 6.6308C1.42847 6.73399 1.45584 6.83533 1.50779 6.92448C1.55974 7.01364 1.63441 7.08742 1.72419 7.1383L3.17669 7.9433V10.7083C3.17669 11.1724 3.36106 11.6175 3.68925 11.9457C4.01744 12.2739 4.46256 12.4583 4.92669 12.4583H9.59335C10.0575 12.4583 10.5026 12.2739 10.8308 11.9457C11.159 11.6175 11.3434 11.1724 11.3434 10.7083V7.9433L12.51 7.28996V8.9583C12.51 9.11301 12.5715 9.26138 12.6809 9.37078C12.7903 9.48017 12.9386 9.54163 13.0934 9.54163C13.2481 9.54163 13.3964 9.48017 13.5058 9.37078C13.6152 9.26138 13.6767 9.11301 13.6767 8.9583V6.95163C13.6765 6.84827 13.6489 6.74681 13.5966 6.65763C13.5443 6.56846 13.4693 6.49478 13.3792 6.44413V6.44413ZM10.1767 10.7083C10.1767 10.863 10.1152 11.0114 10.0058 11.1208C9.89644 11.2302 9.74806 11.2916 9.59335 11.2916H4.92669C4.77198 11.2916 4.6236 11.2302 4.51421 11.1208C4.40481 11.0114 4.34335 10.863 4.34335 10.7083V8.5908L6.97419 10.0491L7.06169 10.0841H7.11419C7.16261 10.0902 7.2116 10.0902 7.26002 10.0841C7.30844 10.0902 7.35743 10.0902 7.40585 10.0841H7.45835C7.48932 10.0776 7.51893 10.0658 7.54585 10.0491L10.1767 8.5908V10.7083ZM7.26002 8.87663L3.21169 6.62496L7.26002 4.3733L11.3084 6.62496L7.26002 8.87663Z" fill="#0055A3"/>
</svg>
