<svg width="60" height="51" viewBox="0 0 60 51" fill="none" xmlns="http://www.w3.org/2000/svg">
<path d="M13.2881 47.6198C12.2823 47.6198 11.4481 46.912 11.4481 46.0586V4.42618C11.4481 3.57271 12.2823 2.86496 13.2881 2.86496C14.294 2.86496 15.1281 3.57271 15.1281 4.42618V46.0586C15.1281 46.912 14.294 47.6198 13.2881 47.6198Z" fill="white" fill-opacity="0.87"/>
<path d="M40.7655 35.1301H13.2881C12.2823 35.1301 11.4481 34.4223 11.4481 33.5689C11.4481 32.7154 12.2823 32.0076 13.2881 32.0076H40.7655C43.4396 32.0076 44.6908 31.404 44.9361 30.8836C45.1815 30.3632 44.8135 29.1975 42.8999 27.5946L39.9559 25.0967C38.7537 24.2016 38.0177 22.8485 37.9441 21.3498C37.8705 19.7677 38.6065 18.2065 39.9559 17.0616L42.8999 14.5637C44.7153 13.0233 45.2796 11.7743 45.0097 11.2331C44.7399 10.6919 43.3415 10.1506 40.7655 10.1506H13.2881C12.2577 10.1506 11.4481 9.44289 11.4481 8.58942C11.4481 7.73596 12.2823 7.02821 13.2881 7.02821H40.7655C46.1383 7.02821 47.8556 8.92248 48.4199 10.0466C48.9596 11.1706 49.3276 13.5437 45.5004 16.791L42.5564 19.2889C41.9431 19.8094 41.5996 20.5379 41.6241 21.2665C41.6487 21.891 41.9431 22.453 42.4583 22.8485L45.5004 25.4089C49.254 28.5938 48.886 30.9668 48.3463 32.1117C47.782 33.215 46.0401 35.1301 40.7655 35.1301Z" fill="white" fill-opacity="0.87"/>
</svg>
