<svg width="79" height="85" viewBox="0 0 79 85" fill="none" xmlns="http://www.w3.org/2000/svg">
<path d="M65.9539 23.96L47.2019 9.80179C42.0907 5.93727 34.2448 6.14806 29.3289 10.2585L13.0186 23.9951C9.76305 26.7354 7.19116 32.3565 7.19116 36.7831V61.0242C7.19116 69.9828 13.9302 77.2903 22.2318 77.2903H57.3267C65.6284 77.2903 72.3674 70.018 72.3674 61.0593V37.2399C72.3674 32.497 69.5351 26.6651 65.9539 23.96ZM42.2209 63.2375C42.2209 64.6779 41.1141 65.8724 39.7793 65.8724C38.4445 65.8724 37.3376 64.6779 37.3376 63.2375V52.6979C37.3376 51.2575 38.4445 50.063 39.7793 50.063C41.1141 50.063 42.2209 51.2575 42.2209 52.6979V63.2375Z" fill="white" fill-opacity="0.87"/>
</svg>
