<svg width="15" height="15" viewBox="0 0 15 15" fill="none" xmlns="http://www.w3.org/2000/svg">
<path d="M3.36206 13.7708C3.12289 13.7708 2.92456 13.5725 2.92456 13.3333V1.66663C2.92456 1.42746 3.12289 1.22913 3.36206 1.22913C3.60123 1.22913 3.79956 1.42746 3.79956 1.66663V13.3333C3.79956 13.5725 3.60123 13.7708 3.36206 13.7708Z" fill="white" fill-opacity="0.87"/>
<path d="M9.89539 10.2709H3.36206C3.12289 10.2709 2.92456 10.0725 2.92456 9.83337C2.92456 9.59421 3.12289 9.39587 3.36206 9.39587H9.89539C10.5312 9.39587 10.8287 9.22671 10.8871 9.08087C10.9454 8.93504 10.8579 8.60837 10.4029 8.15921L9.70289 7.45921C9.41706 7.20837 9.24206 6.82921 9.22456 6.40921C9.20706 5.96587 9.38206 5.52837 9.70289 5.20754L10.4029 4.50754C10.8346 4.07587 10.9687 3.72587 10.9046 3.57421C10.8404 3.42254 10.5079 3.27087 9.89539 3.27087H3.36206C3.11706 3.27087 2.92456 3.07254 2.92456 2.83337C2.92456 2.59421 3.12289 2.39587 3.36206 2.39587H9.89539C11.1729 2.39587 11.5812 2.92671 11.7154 3.24171C11.8437 3.55671 11.9312 4.22171 11.0212 5.13171L10.3212 5.83171C10.1754 5.97754 10.0937 6.18171 10.0996 6.38587C10.1054 6.56087 10.1754 6.71837 10.2979 6.82921L11.0212 7.54671C11.9137 8.43921 11.8262 9.10421 11.6979 9.42504C11.5637 9.73421 11.1496 10.2709 9.89539 10.2709Z" fill="white" fill-opacity="0.87"/>
</svg>
