<svg width="60" height="51" viewBox="0 0 60 51" fill="none" xmlns="http://www.w3.org/2000/svg">
<path d="M30.32 47.6198C17.4645 47.6198 7.01331 38.7521 7.01331 27.8444C7.01331 16.9367 17.4645 8.06902 30.32 8.06902C43.1754 8.06902 53.6266 16.9367 53.6266 27.8444C53.6266 38.7521 43.1754 47.6198 30.32 47.6198ZM30.32 11.1914C19.5008 11.1914 10.6933 18.6645 10.6933 27.8444C10.6933 37.0243 19.5008 44.4974 30.32 44.4974C41.1392 44.4974 49.9466 37.0243 49.9466 27.8444C49.9466 18.6645 41.1392 11.1914 30.32 11.1914Z" fill="white" fill-opacity="0.87"/>
<path d="M30.32 28.8852C29.3141 28.8852 28.48 28.1775 28.48 27.324V16.9159C28.48 16.0624 29.3141 15.3547 30.32 15.3547C31.3258 15.3547 32.16 16.0624 32.16 16.9159V27.324C32.16 28.1775 31.3258 28.8852 30.32 28.8852Z" fill="white" fill-opacity="0.87"/>
<path d="M37.68 5.98739H22.96C21.9541 5.98739 21.12 5.27964 21.12 4.42618C21.12 3.57271 21.9541 2.86496 22.96 2.86496H37.68C38.6859 2.86496 39.52 3.57271 39.52 4.42618C39.52 5.27964 38.6859 5.98739 37.68 5.98739Z" fill="white" fill-opacity="0.87"/>
</svg>
