<svg width="15" height="15" viewBox="0 0 15 15" fill="none" xmlns="http://www.w3.org/2000/svg">
<path d="M3.9082 13.7708C3.66904 13.7708 3.4707 13.5725 3.4707 13.3333V1.66663C3.4707 1.42746 3.66904 1.22913 3.9082 1.22913C4.14737 1.22913 4.3457 1.42746 4.3457 1.66663V13.3333C4.3457 13.5725 4.14737 13.7708 3.9082 13.7708Z" fill="white" fill-opacity="0.87"/>
<path d="M10.4415 10.2709H3.9082C3.66904 10.2709 3.4707 10.0725 3.4707 9.83337C3.4707 9.59421 3.66904 9.39587 3.9082 9.39587H10.4415C11.0774 9.39587 11.3749 9.22671 11.4332 9.08087C11.4915 8.93504 11.404 8.60837 10.949 8.15921L10.249 7.45921C9.9632 7.20837 9.7882 6.82921 9.7707 6.40921C9.7532 5.96587 9.9282 5.52837 10.249 5.20754L10.949 4.50754C11.3807 4.07587 11.5149 3.72587 11.4507 3.57421C11.3865 3.42254 11.054 3.27087 10.4415 3.27087H3.9082C3.6632 3.27087 3.4707 3.07254 3.4707 2.83337C3.4707 2.59421 3.66904 2.39587 3.9082 2.39587H10.4415C11.719 2.39587 12.1274 2.92671 12.2615 3.24171C12.3899 3.55671 12.4774 4.22171 11.5674 5.13171L10.8674 5.83171C10.7215 5.97754 10.6399 6.18171 10.6457 6.38587C10.6515 6.56087 10.7215 6.71837 10.844 6.82921L11.5674 7.54671C12.4599 8.43921 12.3724 9.10421 12.244 9.42504C12.1099 9.73421 11.6957 10.2709 10.4415 10.2709Z" fill="white" fill-opacity="0.87"/>
</svg>
