<svg width="79" height="85" viewBox="0 0 79 85" fill="none" xmlns="http://www.w3.org/2000/svg">
<path d="M39.8928 45.1333C29.5727 45.1333 21.1733 36.0693 21.1733 24.9324C21.1733 13.7956 29.5727 4.73157 39.8928 4.73157C50.2129 4.73157 58.6122 13.7956 58.6122 24.9324C58.6122 36.0693 50.2129 45.1333 39.8928 45.1333ZM39.8928 10.0014C32.2748 10.0014 26.0567 16.7116 26.0567 24.9324C26.0567 33.1533 32.2748 39.8635 39.8928 39.8635C47.5108 39.8635 53.7289 33.1533 53.7289 24.9324C53.7289 16.7116 47.5108 10.0014 39.8928 10.0014Z" fill="white" fill-opacity="0.98"/>
<path d="M67.8585 80.2654C66.5237 80.2654 65.4168 79.0709 65.4168 77.6305C65.4168 65.5099 53.9573 55.673 39.8933 55.673C25.8293 55.673 14.3697 65.5099 14.3697 77.6305C14.3697 79.0709 13.2628 80.2654 11.9281 80.2654C10.5933 80.2654 9.48639 79.0709 9.48639 77.6305C9.48639 62.6291 23.1272 50.4032 39.8933 50.4032C56.6594 50.4032 70.3001 62.6291 70.3001 77.6305C70.3001 79.0709 69.1933 80.2654 67.8585 80.2654Z" fill="white" fill-opacity="0.98"/>
</svg>
