<svg width="15" height="15" viewBox="0 0 15 15" fill="none" xmlns="http://www.w3.org/2000/svg">
<g clip-path="url(#clip0_1_522)">
<path d="M5.53308 1.65955C4.81355 1.65955 4.21808 2.25504 4.21808 2.97454V3.41031H2.0324C1.31263 3.41031 0.720825 4.00468 0.720825 4.72445V5.5994C0.720825 6.09635 1.00187 6.55023 1.44454 6.77171C1.49387 6.79639 1.54303 6.82136 1.59236 6.84604V11.7224C1.59236 12.4419 2.18784 13.0374 2.90736 13.0374H11.6552C12.3747 13.0374 12.9702 12.4419 12.9702 11.7224V6.84604C13.0197 6.82125 13.0693 6.7965 13.1189 6.77171C13.5616 6.55026 13.8417 6.09635 13.8417 5.5994V4.72445C13.8417 4.00468 13.2508 3.41031 12.531 3.41031H10.3445V2.97454C10.3445 2.25504 9.74986 1.65955 9.03033 1.65955H5.53308ZM5.53308 2.5345H9.03033C9.28027 2.5345 9.46952 2.7246 9.46952 2.97454V3.41031H5.09303V2.97454C5.09303 2.7246 5.28313 2.5345 5.53308 2.5345ZM2.0324 4.28526H12.531C12.778 4.28526 12.9702 4.47747 12.9702 4.72445V5.5994C12.9702 5.76485 12.8746 5.91589 12.725 5.99074C10.9757 6.86588 9.22614 7.74003 7.47694 8.6156C7.35263 8.67778 7.20992 8.67778 7.08561 8.6156C5.33641 7.74003 3.58766 6.86588 1.83844 5.99074C1.68875 5.91584 1.59236 5.76485 1.59236 5.5994V4.72445C1.59236 4.47747 1.78543 4.28526 2.0324 4.28526ZM7.28128 6.91098C7.03967 6.91098 6.8438 7.10684 6.8438 7.34846C6.84379 7.59006 7.03966 7.78594 7.28128 7.78594C7.52289 7.78594 7.71876 7.59006 7.71875 7.34846C7.71875 7.10684 7.52289 6.91098 7.28128 6.91098ZM2.46817 7.28352C3.87632 7.98792 5.28386 8.69271 6.69171 9.39742C7.06156 9.58256 7.50099 9.58256 7.87084 9.39742C9.27873 8.69269 10.687 7.98794 12.0952 7.28352V11.7224C12.0952 11.9723 11.9051 12.1616 11.6552 12.1616H2.90736C2.65745 12.1616 2.46817 11.9723 2.46817 11.7224V7.28352Z" fill="#A36200"/>
</g>
<defs>
<clipPath id="clip0_1_522">
<rect width="14" height="14" fill="white" transform="translate(0.281616 0.348877)"/>
</clipPath>
</defs>
</svg>
