<svg width="379" height="386" viewBox="0 0 379 386" fill="none" xmlns="http://www.w3.org/2000/svg">
<path d="M351.713 24.9446H0.861572L23.9503 385.972H374.802L351.713 24.9446Z" fill="#D7D7D7"/>
<path opacity="0.2" d="M351.713 24.9446H0.861572L23.9503 385.972H374.802L351.713 24.9446Z" fill="black"/>
<path d="M354.955 24.9446H4.10339L27.2074 385.972H378.059L354.955 24.9446Z" fill="#D7D7D7"/>
<path opacity="0.2" d="M336.432 37.0885H20.1453L42.2447 369.654L317.27 369.378L362.976 338.765L336.432 37.0885Z" fill="black"/>
<path d="M338.852 37.077C342.225 136.673 352.87 236.053 370.738 334.763C345.676 347.797 320.74 360.83 295.932 373.863H59.3824C37.0553 262.326 23.9509 149.846 20.1453 37.077H338.852Z" fill="white"/>
<path d="M370.738 334.763C345.676 347.797 320.74 360.83 295.932 373.863C301.35 356.613 306.997 339.363 312.872 322.114L370.738 334.763Z" fill="#EBEBEB"/>
<path d="M105.91 67.5058C106.509 79.6803 107.209 91.8626 108.01 104.052H59.6564C58.8446 91.8626 58.1445 79.6803 57.556 67.5058H105.91ZM110.841 63.6533H52.2747C52.9545 78.3962 53.8017 93.1467 54.8164 107.905H113.398C112.383 93.1544 111.536 78.4039 110.856 63.6533H110.841Z" fill="#D7D7D7"/>
<path d="M303.496 81.2251H137.872C137.72 78.4767 137.583 75.7167 137.446 72.9682H303.055C303.192 75.7167 303.344 78.4767 303.496 81.2251Z" fill="#E0E0E0"/>
<path d="M268.505 98.59H138.892C138.724 95.83 138.542 93.0816 138.39 90.3331H267.988C268.16 93.0854 268.333 95.8377 268.505 98.59Z" fill="#E0E0E0"/>
<path d="M110.659 139.081C111.673 151.271 112.805 163.461 114.053 175.651H65.6836C64.4356 163.461 63.3042 151.271 62.2895 139.081H110.659ZM115.438 135.229H56.8712C58.0685 149.987 59.4333 164.745 60.9654 179.503H119.608C118.086 164.753 116.716 149.995 115.499 135.229H115.438Z" fill="#D7D7D7"/>
<path d="M203.927 152.812H143.047C142.803 150.052 142.545 147.304 142.316 144.544H203.196C203.425 147.304 203.668 150.052 203.927 152.812Z" fill="#E0E0E0"/>
<path d="M261.565 152.812H216.803C216.559 150.052 216.301 147.304 216.072 144.544H260.834C261.063 147.304 261.306 150.052 261.565 152.812Z" fill="#E0E0E0"/>
<path d="M289.661 170.188H144.721C144.447 167.428 144.188 164.68 143.914 161.92H288.854C289.128 164.68 289.387 167.428 289.661 170.188Z" fill="#E0E0E0"/>
<path d="M117.919 210.691C119.369 222.881 120.932 235.071 122.606 247.261H74.2371C72.5629 235.071 71.0003 222.881 69.5493 210.691H117.919ZM122.576 206.839H63.994C65.719 221.604 67.6062 236.366 69.6559 251.125H128.238C126.208 236.359 124.321 221.597 122.576 206.839V206.839Z" fill="#D7D7D7"/>
<path d="M317.62 233.541H151.981L153.077 241.798H318.716L317.62 233.541Z" fill="#E0E0E0"/>
<path d="M279.418 216.165H149.804C150.139 218.913 150.474 221.673 150.824 224.422H280.422C280.088 221.673 279.738 218.948 279.418 216.165Z" fill="#E0E0E0"/>
<path d="M127.705 282.301C129.592 294.491 131.586 306.677 133.686 318.859H85.3173C83.2169 306.684 81.2231 294.498 79.3358 282.301H127.705ZM132.271 278.448H73.6436C75.8758 293.214 78.2857 307.969 80.8731 322.712H139.394C136.827 307.969 134.417 293.214 132.164 278.448H132.271Z" fill="#D7D7D7"/>
<path d="M326.737 295.997H161.098C160.656 293.237 160.215 290.489 159.789 287.729H325.413C325.854 290.523 326.28 293.272 326.737 295.997Z" fill="#E0E0E0"/>
<path d="M239.374 313.397H163.974C163.503 310.648 163.046 307.888 162.589 305.14H237.989C238.446 307.888 238.902 310.648 239.374 313.397Z" fill="#E0E0E0"/>
<path d="M284.395 313.397H251.839C251.368 310.648 250.911 307.888 250.454 305.14H283.01C283.466 307.888 283.984 310.648 284.395 313.397Z" fill="#E0E0E0"/>
<path d="M84.602 98.8315L82.456 96.2555C77.7682 90.6205 68.2101 85.5951 64.9073 84.1231L67.373 80.8226C73.8526 83.7957 79.6422 87.5524 84.5107 91.943C91.8772 84.3646 102.775 76.5331 117.69 68.1152L120.841 71.2202C104.921 80.2246 93.7797 88.47 86.7481 96.405L84.602 98.8315Z" fill="#D7D7D7"/>
<path d="M90.3857 170.43L88.1483 167.854C83.2779 162.219 73.5371 157.182 70.1887 155.71L72.5174 152.41C79.1206 155.384 85.0461 159.142 90.066 163.541C97.1585 155.952 107.767 148.12 122.393 139.691C123.474 140.726 124.57 141.761 125.65 142.807C110.05 151.823 99.198 160.057 92.4556 168.003C91.7555 168.808 91.0706 169.625 90.3857 170.43Z" fill="#D7D7D7"/>
<path d="M98.7871 242.224L96.4585 239.648C91.375 234.013 81.4516 228.976 78.0575 227.515C78.7881 226.365 79.5795 225.307 80.2796 224.215C86.9858 227.194 93.035 230.946 98.2088 235.335C105.043 227.745 115.377 219.925 129.684 211.485L133.063 214.601C117.843 223.617 107.189 231.851 100.751 239.797L98.7871 242.224Z" fill="#D7D7D7"/>
<path d="M252.22 354.026C243.24 354.026 238.065 351.519 233.499 349.311C228.933 347.103 225.007 345.194 217.427 345.194C209.847 345.194 206.469 347.195 202.892 349.311C199.315 351.427 194.932 354.026 185.952 354.026C176.972 354.026 171.797 351.519 167.247 349.311C162.696 347.103 158.769 345.194 151.174 345.194C143.58 345.194 140.216 347.195 136.639 349.311C133.063 351.427 128.679 354.026 119.715 354.026C110.75 354.026 105.56 351.519 100.994 349.311C96.428 347.103 92.5165 345.194 84.9217 345.194C84.7238 344.044 84.5107 342.986 84.3129 341.882C93.2927 341.882 98.4523 344.389 103.018 346.597C107.584 348.805 111.496 350.714 119.075 350.714C126.655 350.714 130.034 348.713 133.61 346.597C137.187 344.481 141.586 341.882 150.566 341.882C159.545 341.882 164.69 344.389 169.256 346.597C173.822 348.805 177.748 350.714 185.328 350.714C192.908 350.714 196.286 348.713 199.863 346.597C203.44 344.481 207.838 341.882 216.818 341.882C225.798 341.882 230.958 344.389 235.524 346.597C240.09 348.805 244.001 350.714 251.596 350.714C251.794 351.818 252.022 352.922 252.22 354.026Z" fill="#EBEBEB"/>
<path d="M265.096 33.8801C259.952 23.5301 248.065 16.7337 235.28 16.7337H209.223C207.284 16.7209 205.392 16.2782 203.782 15.4605C202.172 14.6428 200.915 13.4861 200.167 12.1338C198.326 8.82842 195.245 6.00187 191.305 4.00167C187.366 2.00147 182.738 0.914826 177.992 0.87535C173.4 0.840169 168.914 1.91314 165.186 3.93807C161.457 5.96301 158.681 8.83422 157.262 12.1338C156.684 13.4838 155.549 14.6586 154.024 15.4863C152.499 16.3139 150.663 16.7511 148.785 16.7337H122.743C109.943 16.7337 98.924 23.5646 95.119 33.8801L93.597 37.9855H267.105L265.096 33.8801Z" fill="#8687E7"/>
<path d="M266.024 42.0335H95.2559C93.8157 42.0209 92.4353 41.5961 91.3931 40.8449C90.3509 40.0938 89.7244 39.072 89.6397 37.9856V37.9856C89.6023 37.4636 89.7068 36.9414 89.9466 36.451C90.1864 35.9607 90.5565 35.5127 91.0342 35.1345C91.5119 34.7563 92.0869 34.4561 92.724 34.2522C93.3611 34.0484 94.0466 33.9452 94.7384 33.9491H265.507C266.945 33.9616 268.323 34.3847 269.365 35.1335C270.406 35.8823 271.035 36.9012 271.123 37.9856C271.163 38.5085 271.06 39.032 270.821 39.5237C270.582 40.0154 270.212 40.4648 269.734 40.8442C269.256 41.2236 268.681 41.5249 268.043 41.7295C267.404 41.9341 266.717 42.0375 266.024 42.0335V42.0335Z" fill="#BCBDFF"/>
<path opacity="0.2" d="M266.024 42.0335H95.2559C93.8157 42.0209 92.4353 41.5961 91.3931 40.8449C90.3509 40.0938 89.7244 39.072 89.6397 37.9856V37.9856C89.6023 37.4636 89.7068 36.9414 89.9466 36.451C90.1864 35.9607 90.5565 35.5127 91.0342 35.1345C91.5119 34.7563 92.0869 34.4561 92.724 34.2522C93.3611 34.0484 94.0466 33.9452 94.7384 33.9491H265.507C266.945 33.9616 268.323 34.3847 269.365 35.1335C270.406 35.8823 271.035 36.9012 271.123 37.9856C271.163 38.5085 271.06 39.032 270.821 39.5237C270.582 40.0154 270.212 40.4648 269.734 40.8442C269.256 41.2236 268.681 41.5249 268.043 41.7295C267.404 41.9341 266.717 42.0375 266.024 42.0335V42.0335Z" fill="black"/>
</svg>
