<svg width="761" height="399" viewBox="0 0 761 399" fill="none" xmlns="http://www.w3.org/2000/svg">
<path d="M761 376.507H0V376.793H761V376.507Z" fill="#EBEBEB"/>
<path d="M684.748 387.455H546.398V387.741H684.748V387.455Z" fill="#EBEBEB"/>
<path d="M504.117 384.338H466.234V384.625H504.117V384.338Z" fill="#EBEBEB"/>
<path d="M590.703 398.138H531.969V398.425H590.703V398.138Z" fill="#EBEBEB"/>
<path d="M114.302 396.206H79.8441V396.494H114.302V396.206Z" fill="#EBEBEB"/>
<path d="M168.774 396.206H127.848V396.494H168.774V396.206Z" fill="#EBEBEB"/>
<path d="M342.678 391.353H271.388V391.64H342.678V391.353Z" fill="#EBEBEB"/>
<path d="M360.714 325.217H66.831C64.5288 325.214 62.3222 324.521 60.6957 323.29C59.0692 322.059 58.1556 320.39 58.1556 318.651V6.50894C58.1757 4.77939 59.0981 3.12565 60.7224 1.90693C62.3468 0.688221 64.5419 0.00296282 66.831 0H360.714C363.019 0 365.229 0.69182 366.859 1.92327C368.489 3.15471 369.405 4.82491 369.405 6.56644V318.651C369.405 320.392 368.489 322.062 366.859 323.294C365.229 324.525 363.019 325.217 360.714 325.217V325.217ZM66.831 0.229999C64.6297 0.233045 62.5199 0.895917 60.9647 2.07312C59.4096 3.25032 58.5361 4.84565 58.5361 6.50894V318.651C58.5361 320.314 59.4096 321.909 60.9647 323.087C62.5199 324.264 64.6297 324.927 66.831 324.93H360.714C362.917 324.927 365.028 324.264 366.586 323.087C368.143 321.91 369.02 320.315 369.024 318.651V6.50894C369.02 4.8446 368.143 3.24929 366.586 2.07242C365.028 0.895543 362.917 0.233039 360.714 0.229999H66.831Z" fill="#EBEBEB"/>
<path d="M689.938 325.217H396.04C393.736 325.214 391.528 324.521 389.899 323.291C388.27 322.06 387.353 320.391 387.349 318.651V6.50894C387.373 4.77834 388.299 3.12461 389.926 1.90621C391.552 0.687819 393.749 0.00293051 396.04 0H689.938C692.224 0.00598512 694.416 0.69258 696.037 1.91097C697.658 3.12936 698.578 4.78137 698.598 6.50894V318.651C698.598 320.388 697.687 322.055 696.063 323.286C694.44 324.517 692.237 325.211 689.938 325.217V325.217ZM396.04 0.229999C393.837 0.233039 391.725 0.895543 390.168 2.07242C388.61 3.24929 387.734 4.8446 387.729 6.50894V318.651C387.734 320.315 388.61 321.91 390.168 323.087C391.725 324.264 393.837 324.927 396.04 324.93H689.938C692.141 324.927 694.252 324.264 695.81 323.087C697.367 321.91 698.244 320.315 698.248 318.651V6.50894C698.244 4.8446 697.367 3.24929 695.81 2.07242C694.252 0.895543 692.141 0.233039 689.938 0.229999H396.04Z" fill="#EBEBEB"/>
<path d="M79.8289 376.495H261.799L261.799 72.4264H79.8289L79.8289 376.495Z" fill="#F0F0F0"/>
<path d="M79.8441 376.495H253.185L253.185 72.4264H79.8441L79.8441 376.495Z" fill="#F5F5F5"/>
<path d="M244.053 369.607L244.053 79.3378L88.9761 79.3378L88.9761 369.607H244.053Z" fill="#F0F0F0"/>
<path d="M139.08 216.198H107.468C106.392 216.195 105.361 215.871 104.599 215.295C103.838 214.72 103.409 213.941 103.405 213.128V213.128C103.409 212.314 103.838 211.535 104.599 210.96C105.361 210.385 106.392 210.06 107.468 210.057H139.08C140.157 210.06 141.188 210.385 141.949 210.96C142.711 211.535 143.14 212.314 143.144 213.128V213.128C143.14 213.941 142.711 214.72 141.949 215.295C141.188 215.871 140.157 216.195 139.08 216.198Z" fill="white"/>
<path d="M91.3503 369.607L91.3503 79.3378H88.976L88.976 369.607H91.3503Z" fill="#F0F0F0"/>
<path d="M347.062 370.734H374.153V281.954H347.062V370.734Z" fill="#F0F0F0"/>
<path d="M235.347 376.369H368.948V370.745H235.347V376.369Z" fill="#F0F0F0"/>
<path d="M347.062 281.966H230.142V370.745H347.062V281.966Z" fill="#F5F5F5"/>
<path d="M336.392 292.891H240.78V322.009H336.392V292.891Z" fill="#F0F0F0"/>
<path d="M336.392 330.691H240.78V359.809H336.392V330.691Z" fill="#F0F0F0"/>
<path d="M277.856 295.34H299.332C300.029 295.337 300.696 295.127 301.189 294.754C301.682 294.382 301.961 293.878 301.965 293.351C301.965 292.822 301.688 292.315 301.195 291.94C300.701 291.565 300.031 291.353 299.332 291.35H277.856C277.157 291.353 276.487 291.565 275.994 291.94C275.5 292.315 275.223 292.822 275.223 293.351V293.351C275.227 293.878 275.506 294.382 275.999 294.754C276.492 295.127 277.159 295.337 277.856 295.34V295.34Z" fill="#F5F5F5"/>
<path d="M277.856 333.152H299.332C300.021 333.149 300.682 332.943 301.173 332.578C301.665 332.213 301.949 331.718 301.965 331.197V331.197C301.961 330.67 301.682 330.166 301.189 329.794C300.696 329.421 300.029 329.211 299.332 329.208H277.856C277.159 329.211 276.492 329.421 275.999 329.794C275.506 330.166 275.227 330.67 275.223 331.197V331.197C275.239 331.718 275.523 332.213 276.015 332.578C276.506 332.943 277.167 333.149 277.856 333.152V333.152Z" fill="#F5F5F5"/>
<path d="M297.505 280.218C296.974 280.215 296.465 280.054 296.089 279.77C295.713 279.486 295.5 279.102 295.496 278.7V232.574C295.496 232.171 295.708 231.785 296.085 231.501C296.462 231.216 296.973 231.056 297.505 231.056V231.056C298.037 231.059 298.546 231.22 298.922 231.504C299.297 231.788 299.51 232.172 299.514 232.574V278.7C299.51 279.102 299.297 279.486 298.922 279.77C298.546 280.054 298.037 280.215 297.505 280.218V280.218Z" fill="#F5F5F5"/>
<path d="M316.302 278.424H278.709V282.001H316.302V278.424Z" fill="#F0F0F0"/>
<path d="M307.916 252.618C307.652 252.618 307.399 252.54 307.211 252.4C307.023 252.26 306.915 252.07 306.911 251.871V228.848C306.915 228.648 307.022 228.456 307.21 228.315C307.397 228.173 307.651 228.092 307.916 228.089C308.181 228.092 308.434 228.173 308.622 228.315C308.809 228.456 308.917 228.648 308.92 228.848V251.848C308.922 251.948 308.898 252.048 308.848 252.142C308.799 252.235 308.725 252.32 308.632 252.392C308.538 252.464 308.427 252.521 308.304 252.559C308.181 252.598 308.049 252.618 307.916 252.618Z" fill="#F0F0F0"/>
<path d="M268.268 236.783C268.268 236.783 269.013 215.048 297.505 215.048C325.997 215.048 326.728 236.76 326.728 236.76L268.268 236.783Z" fill="#F0F0F0"/>
<path d="M514.908 267.488C515.714 267.488 516.536 267.488 517.358 267.545C525.777 268.005 533.692 270.747 539.646 275.267C545.6 279.787 549.193 285.781 549.762 292.143C550.002 295.034 549.622 297.935 548.635 300.734C544.82 311.96 542.978 323.517 543.156 335.107V368.848C543.158 369.432 543.007 370.011 542.712 370.551C542.416 371.091 541.982 371.581 541.435 371.994C540.887 372.407 540.237 372.733 539.521 372.955C538.806 373.177 538.039 373.29 537.266 373.287H395.522V267.488H514.908Z" fill="#F0F0F0"/>
<path d="M360.592 293.88C360.607 290.128 361.681 286.422 363.742 283.009C365.803 279.596 368.803 276.555 372.544 274.087C376.284 271.62 380.677 269.784 385.431 268.701C390.185 267.619 395.19 267.314 400.111 267.809C405.033 268.304 409.758 269.586 413.972 271.57C418.186 273.554 421.791 276.194 424.548 279.315C427.304 282.435 429.148 285.964 429.956 289.665C430.764 293.367 430.518 297.156 429.235 300.78C425.431 312.008 423.594 323.564 423.771 335.153V368.894C423.771 369.476 423.618 370.053 423.323 370.591C423.028 371.129 422.595 371.617 422.049 372.028C421.503 372.44 420.855 372.766 420.143 372.987C419.43 373.209 418.666 373.323 417.896 373.321H373.134C372.364 373.321 371.602 373.207 370.891 372.984C370.18 372.762 369.534 372.436 368.99 372.024C368.446 371.613 368.014 371.125 367.72 370.588C367.425 370.051 367.274 369.475 367.274 368.894V333.129C367.403 322.26 365.58 311.428 361.856 300.929C361.016 298.633 360.591 296.262 360.592 293.88V293.88Z" fill="#F5F5F5"/>
<path d="M443.648 373.287H570.902V309.048H443.648V373.287Z" fill="#F0F0F0"/>
<path d="M676.072 323.584H505.745V225.064C505.745 219.77 508.529 214.692 513.484 210.948C518.439 207.204 525.16 205.101 532.167 205.101H649.65C656.658 205.101 663.378 207.204 668.334 210.948C673.289 214.692 676.072 219.77 676.072 225.064V323.584Z" fill="#E0E0E0"/>
<path d="M642.786 323.584H472.459V224.098C472.459 219.057 475.11 214.222 479.828 210.657C484.546 207.092 490.945 205.089 497.618 205.089H617.567C624.239 205.089 630.638 207.092 635.357 210.657C640.075 214.222 642.725 219.057 642.725 224.098V323.584H642.786Z" fill="#F5F5F5"/>
<path d="M562.592 329.346H445.292C443.273 329.346 441.338 328.74 439.911 327.661C438.483 326.583 437.682 325.121 437.682 323.596V309.025C437.682 307.5 438.483 306.038 439.911 304.959C441.338 303.881 443.273 303.275 445.292 303.275H562.592C563.202 303.275 563.786 303.458 564.217 303.784C564.648 304.11 564.89 304.551 564.89 305.012V327.621C564.886 328.079 564.642 328.518 564.212 328.841C563.781 329.164 563.199 329.346 562.592 329.346Z" fill="#E0E0E0"/>
<path d="M688.629 267.488C689.436 267.488 690.242 267.488 691.079 267.545C699.495 268.007 707.407 270.751 713.358 275.271C719.309 279.791 722.899 285.782 723.467 292.143C723.723 295.034 723.342 297.937 722.341 300.734C718.524 311.964 716.682 323.525 716.862 335.119V368.859C716.862 369.442 716.71 370.018 716.415 370.556C716.119 371.094 715.686 371.583 715.14 371.994C714.595 372.405 713.947 372.731 713.234 372.953C712.521 373.175 711.758 373.288 710.987 373.287H569.228V267.488H688.629Z" fill="#F0F0F0"/>
<path d="M534.313 293.88C534.252 287.002 537.748 280.378 544.057 275.42C550.365 270.461 558.987 267.56 568.085 267.335C577.184 267.11 586.038 269.579 592.762 274.215C599.486 278.852 603.548 285.289 604.082 292.155C604.322 295.046 603.942 297.947 602.956 300.745C599.14 311.972 597.298 323.529 597.476 335.119V368.859C597.476 370.033 596.859 371.16 595.76 371.99C594.661 372.82 593.171 373.287 591.617 373.287H546.839C546.07 373.287 545.308 373.172 544.597 372.95C543.886 372.727 543.24 372.401 542.696 371.99C542.152 371.579 541.72 371.091 541.426 370.554C541.131 370.016 540.98 369.441 540.98 368.859V333.129C541.107 322.261 539.289 311.43 535.577 300.929C534.737 298.633 534.312 296.262 534.313 293.88Z" fill="#F5F5F5"/>
<path d="M398.003 376.507H686.133C686.692 376.507 687.245 376.423 687.761 376.261C688.278 376.099 688.746 375.862 689.141 375.563C689.535 375.264 689.848 374.909 690.06 374.518C690.273 374.127 690.381 373.709 690.379 373.287H393.757C393.755 373.709 393.863 374.127 394.075 374.518C394.288 374.909 394.6 375.264 394.995 375.563C395.389 375.862 395.858 376.099 396.374 376.261C396.891 376.423 397.444 376.507 398.003 376.507Z" fill="#E0E0E0"/>
<path d="M568.65 129.799H661.324V53.4285L568.65 53.4285V129.799Z" fill="#E0E0E0"/>
<path d="M563.125 129.799H658.204V53.4285L563.125 53.4285V129.799Z" fill="#F5F5F5"/>
<path d="M650.229 123.785V59.4429L571.07 59.4429V123.785H650.229Z" fill="white"/>
<path d="M610.657 75.3473L632.3 103.683H589.014L610.657 75.3473Z" fill="#F5F5F5"/>
<path d="M438.64 174.384H531.315V98.0136L438.64 98.0136V174.384Z" fill="#E0E0E0"/>
<path d="M433.116 174.384H528.195V98.0136L433.116 98.0136V174.384Z" fill="#F5F5F5"/>
<path d="M520.22 168.37V104.028H441.06V168.37H520.22Z" fill="white"/>
<path d="M470.968 147.67L461.577 135.377C460.6 134.094 460.087 132.639 460.089 131.159C460.091 129.678 460.609 128.224 461.589 126.943C462.57 125.661 463.979 124.597 465.676 123.857C467.373 123.117 469.298 122.727 471.257 122.727H490.084C492.043 122.729 493.966 123.119 495.663 123.859C497.359 124.599 498.768 125.663 499.75 126.944C500.732 128.224 501.251 129.677 501.256 131.157C501.261 132.637 500.752 134.092 499.779 135.377L490.388 147.67C489.41 148.963 487.996 150.038 486.291 150.785C484.586 151.532 482.649 151.926 480.678 151.926C478.707 151.926 476.77 151.532 475.065 150.785C473.36 150.038 471.946 148.963 470.968 147.67V147.67Z" fill="#F5F5F5"/>
</svg>
