<svg width="258" height="346" viewBox="0 0 258 346" fill="none" xmlns="http://www.w3.org/2000/svg">
<path d="M159.32 336.511H148.164L147.053 316.996H158.209L159.32 336.511Z" fill="#FFC3BD"/>
<path d="M226.273 336.511H215.117L209.516 316.996H220.657L226.273 336.511Z" fill="#FFC3BD"/>
<path d="M214.325 335.534H226.851C227.072 335.533 227.287 335.589 227.459 335.694C227.631 335.799 227.749 335.945 227.795 336.109L230.002 343.606C230.052 343.788 230.047 343.976 229.989 344.157C229.93 344.337 229.818 344.505 229.662 344.649C229.506 344.792 229.309 344.907 229.086 344.986C228.863 345.064 228.619 345.104 228.373 345.101C224.005 345.044 221.874 344.848 216.365 344.848C212.971 344.848 205.985 345.113 201.312 345.113C196.64 345.113 196.016 341.663 197.933 341.306C206.533 339.88 209.759 337.925 212.514 336.051C213.014 335.718 213.658 335.534 214.325 335.534V335.534Z" fill="#263238"/>
<path d="M148.24 335.534H160.416C160.637 335.533 160.851 335.589 161.023 335.694C161.195 335.799 161.314 335.945 161.36 336.109L163.567 343.606C163.621 343.782 163.623 343.965 163.572 344.141C163.522 344.317 163.42 344.483 163.274 344.626C163.129 344.769 162.943 344.886 162.73 344.968C162.517 345.05 162.283 345.096 162.045 345.101C157.646 345.044 151.299 344.848 145.774 344.848C139.321 344.848 133.751 345.113 126.171 345.113C121.605 345.113 120.327 341.663 122.244 341.306C130.965 339.857 138.088 339.708 145.622 336.189C146.402 335.798 147.306 335.571 148.24 335.534Z" fill="#263238"/>
<path d="M170.096 29.1072C168.574 35.2711 167.691 42.907 173.399 47.024C173.399 47.024 170.126 53.28 154.967 53.28C141.117 53.28 148.057 47.024 148.057 47.024C157.189 45.3795 156.672 36.8811 155.089 32.0742L170.096 29.1072Z" fill="#FFC3BD"/>
<path d="M143.704 47.8866C144.009 46.3571 147.57 44.5746 151.619 43.9076C155.667 43.2406 171.222 41.7571 175.971 43.2406C180.719 44.7241 175.149 49.1171 175.149 49.1171L143.704 47.8866Z" fill="#D7D7D7"/>
<path opacity="0.4" d="M143.704 47.8866C144.009 46.3571 147.57 44.5746 151.619 43.9076C155.667 43.2406 171.222 41.7571 175.971 43.2406C180.719 44.7241 175.149 49.1171 175.149 49.1171L143.704 47.8866Z" fill="white"/>
<path opacity="0.2" d="M147.053 317.007L147.631 327.058H158.788L158.209 317.007H147.053Z" fill="black"/>
<path opacity="0.2" d="M220.672 317.007H209.516L212.408 327.058H223.564L220.672 317.007Z" fill="black"/>
<path d="M196.503 54.614L183.063 61.3989C183.063 61.3989 202.362 87.3312 200.749 91.4827C198.542 97.1406 195.468 109.503 191.282 115.782C191.83 117.139 194.615 120.232 196.168 120.761C206.822 114.643 217.582 95.4616 217.187 90.0912C216.258 77.9128 196.503 54.614 196.503 54.614Z" fill="#FFC3BD"/>
<path d="M191.282 115.805L180.628 115.184L186.214 124.05C186.214 124.05 195.513 124.361 197.066 118.99L191.282 115.805Z" fill="#B55B52"/>
<path d="M243.943 159.045L243.045 160.321L237.018 168.934L23.0555 83.4557L29.9654 73.5658L243.943 159.045Z" fill="#D7D7D7"/>
<path d="M257.778 139.299L253.365 145.601L250.868 149.166L36.8905 63.6874L43.8003 53.7975L257.778 139.299Z" fill="#D7D7D7"/>
<path d="M36.9612 63.6584L30.0365 73.5361L243.927 159.141L250.851 149.263L36.9612 63.6584Z" fill="#D7D7D7"/>
<path opacity="0.2" d="M36.9612 63.6584L30.0365 73.5361L243.927 159.141L250.851 149.263L36.9612 63.6584Z" fill="black"/>
<path d="M13.8322 55.1085L7.60718 64.0094L23.0555 83.4557L43.8004 53.809L13.8322 55.1085Z" fill="#D7D7D7"/>
<path opacity="0.8" d="M13.8322 55.1085L7.60718 64.0094L23.0555 83.4557L43.8004 53.809L13.8322 55.1085Z" fill="white"/>
<path d="M0.986572 55.672L7.60723 64.0094L13.8322 55.1085L0.986572 55.672Z" fill="#D7D7D7"/>
<path d="M172.059 119.22L177.63 127.063L186.26 124.05L180.674 115.184L172.059 119.22Z" fill="#B55B52"/>
<path d="M193.306 48.933C203.854 50.083 215.938 77.6827 215.938 77.6827L193.778 87.1356C193.778 87.1356 184.022 74.0488 179.228 64.2738C174.175 54.0504 181.998 47.691 193.306 48.933Z" fill="#8687E7"/>
<path opacity="0.2" d="M187.173 58.3974C182.378 55.0855 185.316 69.2649 187.599 78.3383C188.771 80.1093 189.882 81.7193 190.826 83.0647C196.168 75.9348 193.778 62.9629 187.173 58.3974Z" fill="black"/>
<path d="M130.844 49.37C130.844 49.37 117.678 74.8077 130.174 122.187H189.882C190.293 115.287 184.54 81.5237 193.367 48.933C186.773 47.971 180.103 47.3333 173.399 47.024C164.959 46.6557 156.497 46.6557 148.057 47.024C142.247 47.463 136.491 48.2474 130.844 49.37V49.37Z" fill="#8687E7"/>
<path d="M140.021 61.192L124.984 56.6955C124.984 56.6955 107.663 83.4098 102.154 84.7552C94.7417 86.5952 79.5217 91.6552 70.2984 92.6442C69.1417 93.7942 67.3458 97.2441 67.6349 98.5091C80.3436 101.649 107.39 97.4856 112.991 94.1967C125.836 86.6987 140.021 61.192 140.021 61.192Z" fill="#FFC3BD"/>
<path opacity="0.2" d="M141.711 58.156C139.23 53.832 134.481 52.0265 129.535 52.659C127.617 57.9605 124.375 69.6099 124.969 87.1587L128.515 88.4467C128.515 88.4467 145.957 65.5504 141.711 58.156Z" fill="black"/>
<path d="M144.085 55.1315C147.829 62.6754 128.865 84.8702 128.865 84.8702L106.552 75.6703C109.905 68.7671 114.226 62.1552 119.444 55.948C127.282 47.1045 139.96 46.863 144.085 55.1315Z" fill="#8687E7"/>
<path d="M70.8464 92.6211L57.5746 94.7486L64.3018 104.029C68.0114 102.635 71.3821 100.776 74.2709 98.5321L70.8464 92.6211Z" fill="#FFC3BD"/>
<path d="M51.3038 96.8531L56.6004 102.396L64.3017 104.075L57.5745 94.7946L51.3038 96.8531Z" fill="#FFC3BD"/>
<path d="M144.8 20.2408C144.8 20.9193 144.237 21.3908 143.644 21.3908C143.05 21.3908 142.624 20.7928 142.685 20.1143C142.746 19.4358 143.248 18.9643 143.841 18.9643C144.435 18.9643 144.861 19.5623 144.8 20.2408Z" fill="#263238"/>
<path d="M145.592 20.2983C144.363 22.3245 142.77 24.2129 140.858 25.9103C141.446 26.2695 142.131 26.5267 142.865 26.6639C143.599 26.801 144.363 26.8146 145.105 26.7038L145.592 20.2983Z" fill="#ED847E"/>
<path d="M143.659 17.8948C143.578 17.8819 143.501 17.8586 143.43 17.8258C143.371 17.7978 143.32 17.7611 143.281 17.7179C143.241 17.6747 143.213 17.6259 143.199 17.5743C143.185 17.5228 143.184 17.4696 143.198 17.4179C143.212 17.3663 143.239 17.3173 143.278 17.2738C143.719 16.7353 144.323 16.2836 145.04 15.9557C145.757 15.6278 146.567 15.4332 147.403 15.3878C147.542 15.3934 147.673 15.4376 147.771 15.5119C147.87 15.5862 147.928 15.6854 147.936 15.7903C147.936 15.8971 147.88 15.9995 147.78 16.075C147.68 16.1504 147.544 16.1928 147.403 16.1928C146.754 16.2386 146.128 16.3987 145.575 16.6603C145.023 16.9219 144.559 17.2778 144.222 17.6993C144.167 17.7722 144.083 17.8303 143.982 17.8653C143.881 17.9004 143.768 17.9107 143.659 17.8948V17.8948Z" fill="#263238"/>
<path d="M175.058 19.6543C173.749 27.9572 173.536 32.8562 167.646 36.9042C158.772 42.9761 145.455 38.5717 143.446 30.1307C141.65 22.5408 144.1 10.2474 155.15 7.39543C157.581 6.7598 160.187 6.60416 162.721 6.9433C165.254 7.28244 167.631 8.10509 169.625 9.33319C171.619 10.5613 173.165 12.1541 174.116 13.9604C175.067 15.7668 175.391 17.7267 175.058 19.6543V19.6543Z" fill="#FFC3BD"/>
<path d="M152.913 21.2758C149.062 21.8508 142.913 15.3879 147.936 9.9024C145.394 8.94791 137.099 12.7199 133.979 9.2009C130.859 5.68194 139.519 3.80745 137.86 0.828979C143.735 1.73747 134.055 7.28042 139.641 6.73993C145.226 6.19943 151.664 -1.5975 157.905 1.59947C168.939 7.19992 183.977 -2.138 177.843 9.5574C185.362 8.40741 190.506 15.1233 183.337 19.7808C169.046 29.0382 177.843 30.2572 168.787 30.7287C164.251 30.9817 153.704 26.8992 152.913 21.2758Z" fill="#263238"/>
<path d="M158.62 23.4493C158.093 24.2794 157.352 25.0214 156.44 25.6317C155.527 26.242 154.463 26.7081 153.308 27.0027C150.264 27.7962 148.514 25.7378 149.229 23.4723C149.869 21.4253 152.273 18.5503 155.424 18.7573C156.115 18.8083 156.779 18.9896 157.354 19.2844C157.929 19.5793 158.396 19.9784 158.714 20.4451C159.032 20.9119 159.19 21.4315 159.174 21.9563C159.157 22.4811 158.967 22.9944 158.62 23.4493Z" fill="#FFC3BD"/>
<path d="M151.33 122.187C151.33 122.187 163.993 186.587 170.933 210.737C178.543 237.186 207.202 325.149 207.202 325.149H227.627C227.627 325.149 208.739 239.291 204.387 213.129C199.684 184.747 189.821 122.222 189.821 122.222L151.33 122.187Z" fill="#D7D7D7"/>
<path opacity="0.2" d="M151.33 122.187C151.33 122.187 163.993 186.587 170.933 210.737C178.543 237.186 207.202 325.149 207.202 325.149H227.627C227.627 325.149 208.739 239.291 204.387 213.129C199.684 184.747 189.821 122.222 189.821 122.222L151.33 122.187Z" fill="white"/>
<path opacity="0.2" d="M166.367 144.704C165.423 143.692 164.571 143.347 163.78 143.554H163.612C163.432 143.614 163.263 143.691 163.11 143.784C162.948 143.884 162.8 143.995 162.669 144.118L162.425 144.348L162.105 144.727C161.841 145.062 161.612 145.412 161.421 145.774C161.299 145.992 161.177 146.222 161.071 146.452C160.964 146.682 160.797 147.039 160.675 147.361C160.553 147.683 160.325 148.235 160.157 148.706C160.157 148.833 160.081 148.948 160.036 149.074C159.99 149.201 159.868 149.603 159.792 149.868C159.716 150.132 159.655 150.328 159.594 150.558C159.457 151.006 159.335 151.478 159.214 151.961C159.092 152.444 158.955 153.007 158.833 153.548C158.833 153.732 158.757 153.916 158.711 154.111C158.559 154.801 158.422 155.503 158.285 156.227C161.664 172.258 165.682 190.635 168.939 203.457C169.091 203.043 169.259 202.606 169.396 202.135C170.06 199.995 170.569 197.83 170.918 195.649C173.794 179.123 172.47 151.294 166.367 144.704Z" fill="black"/>
<path d="M130.174 122.187C130.174 122.187 128.652 185.184 129.854 210.886C131.117 237.612 143.476 325.115 143.476 325.115H162.364C162.364 325.115 163.049 239.164 163.886 212.922C164.799 184.31 169.365 122.187 169.365 122.187H130.174Z" fill="#D7D7D7"/>
<path opacity="0.2" d="M130.174 122.187C130.174 122.187 128.652 185.184 129.854 210.886C131.117 237.612 143.476 325.115 143.476 325.115H162.364C162.364 325.115 163.049 239.164 163.886 212.922C164.799 184.31 169.365 122.187 169.365 122.187H130.174Z" fill="white"/>
<path d="M163.612 320.745C163.688 320.745 163.612 325.402 163.612 325.402H141.832L140.919 320.17L163.612 320.745Z" fill="#263238"/>
<path d="M227.628 321.09C227.719 321.09 228.647 325.402 228.647 325.402H206.198L204.219 320.457L227.628 321.09Z" fill="#263238"/>
<path d="M210.642 337.005C209.884 337.052 209.127 336.902 208.496 336.58C208.291 336.455 208.133 336.291 208.037 336.106C207.941 335.92 207.91 335.719 207.948 335.522C207.95 335.407 207.992 335.295 208.069 335.196C208.146 335.097 208.257 335.015 208.39 334.959C209.622 334.487 213.229 336.108 213.64 336.338C213.682 336.362 213.715 336.394 213.734 336.43C213.752 336.467 213.757 336.507 213.747 336.546C213.739 336.584 213.716 336.62 213.681 336.649C213.646 336.678 213.6 336.698 213.549 336.706C212.597 336.886 211.623 336.986 210.642 337.005ZM208.983 335.269C208.868 335.25 208.748 335.25 208.633 335.269C208.58 335.292 208.536 335.326 208.507 335.366C208.477 335.407 208.463 335.453 208.466 335.499C208.442 335.633 208.463 335.77 208.527 335.896C208.591 336.023 208.695 336.135 208.831 336.224C210.073 336.66 211.491 336.717 212.788 336.384C211.627 335.831 210.335 335.452 208.983 335.269Z" fill="#D7D7D7"/>
<path d="M213.488 336.718C213.449 336.728 213.406 336.728 213.366 336.718C212.21 336.247 209.988 334.418 210.216 333.463C210.255 333.317 210.359 333.186 210.512 333.092C210.665 332.997 210.856 332.946 211.053 332.946C211.254 332.923 211.459 332.934 211.653 332.978C211.848 333.021 212.028 333.097 212.179 333.199C213.473 333.993 213.701 336.43 213.701 336.534C213.7 336.57 213.689 336.604 213.668 336.636C213.647 336.668 213.616 336.696 213.579 336.718C213.549 336.722 213.518 336.722 213.488 336.718V336.718ZM211.236 333.268H211.19C210.84 333.268 210.809 333.417 210.794 333.475C210.657 334.027 212.073 335.419 213.229 336.074C213.15 335.115 212.688 334.197 211.905 333.44C211.808 333.377 211.694 333.331 211.57 333.305C211.446 333.279 211.316 333.274 211.19 333.291L211.236 333.268Z" fill="#D7D7D7"/>
<path d="M143.598 337.005C142.643 337.073 141.687 336.89 140.889 336.488C140.713 336.367 140.578 336.216 140.494 336.049C140.409 335.881 140.378 335.701 140.402 335.522C140.402 335.413 140.442 335.306 140.517 335.213C140.592 335.119 140.7 335.043 140.828 334.993C142.182 334.418 146.672 336.143 147.175 336.338C147.225 336.356 147.267 336.386 147.292 336.424C147.317 336.461 147.324 336.504 147.312 336.545C147.305 336.586 147.281 336.625 147.242 336.654C147.203 336.683 147.153 336.702 147.099 336.706C145.947 336.892 144.775 336.992 143.598 337.005V337.005ZM141.574 335.269C141.407 335.264 141.24 335.288 141.087 335.338C141.036 335.36 140.994 335.392 140.964 335.43C140.935 335.469 140.919 335.512 140.919 335.556C140.898 335.674 140.915 335.793 140.971 335.904C141.027 336.014 141.119 336.112 141.239 336.189C141.924 336.649 143.765 336.729 146.231 336.419C144.775 335.841 143.201 335.452 141.574 335.269V335.269Z" fill="#D7D7D7"/>
<path d="M147.053 336.718H146.946C145.592 336.258 142.928 334.418 143.141 333.486C143.141 333.268 143.4 332.98 144.115 332.934C144.386 332.904 144.662 332.918 144.925 332.976C145.187 333.033 145.43 333.133 145.637 333.268C147.053 334.153 147.342 336.419 147.357 336.522C147.364 336.556 147.357 336.59 147.338 336.621C147.319 336.651 147.289 336.677 147.251 336.695C147.191 336.721 147.12 336.729 147.053 336.718V336.718ZM144.329 333.268H144.222C143.75 333.268 143.72 333.44 143.704 333.498C143.583 334.061 145.394 335.499 146.749 336.12C146.617 335.154 146.084 334.244 145.226 333.521C144.967 333.374 144.653 333.293 144.329 333.291V333.268Z" fill="#D7D7D7"/>
</svg>
