<svg width="65" height="61" viewBox="0 0 65 61" fill="none" xmlns="http://www.w3.org/2000/svg">
<ellipse cx="32.5" cy="30.4926" rx="32.5" ry="30.4926" fill="#8687E7"/>
<path d="M40.625 31.4456H24.375C23.8198 31.4456 23.3594 31.0136 23.3594 30.4927C23.3594 29.9717 23.8198 29.5398 24.375 29.5398H40.625C41.1802 29.5398 41.6406 29.9717 41.6406 30.4927C41.6406 31.0136 41.1802 31.4456 40.625 31.4456Z" fill="white"/>
<path d="M32.5 39.0687C31.9448 39.0687 31.4844 38.6367 31.4844 38.1158V22.8695C31.4844 22.3486 31.9448 21.9166 32.5 21.9166C33.0552 21.9166 33.5156 22.3486 33.5156 22.8695V38.1158C33.5156 38.6367 33.0552 39.0687 32.5 39.0687Z" fill="white"/>
</svg>
