<svg width="15" height="15" viewBox="0 0 15 15" fill="none" xmlns="http://www.w3.org/2000/svg">
<path d="M3.93103 13.7708C3.69186 13.7708 3.49353 13.5725 3.49353 13.3333V1.66663C3.49353 1.42746 3.69186 1.22913 3.93103 1.22913C4.1702 1.22913 4.36853 1.42746 4.36853 1.66663V13.3333C4.36853 13.5725 4.1702 13.7708 3.93103 13.7708Z" fill="white" fill-opacity="0.87"/>
<path d="M10.4644 10.2709H3.93103C3.69186 10.2709 3.49353 10.0725 3.49353 9.83337C3.49353 9.59421 3.69186 9.39587 3.93103 9.39587H10.4644C11.1002 9.39587 11.3977 9.22671 11.456 9.08087C11.5144 8.93504 11.4269 8.60837 10.9719 8.15921L10.2719 7.45921C9.98603 7.20837 9.81103 6.82921 9.79353 6.40921C9.77603 5.96587 9.95103 5.52837 10.2719 5.20754L10.9719 4.50754C11.4035 4.07587 11.5377 3.72587 11.4735 3.57421C11.4094 3.42254 11.0769 3.27087 10.4644 3.27087H3.93103C3.68603 3.27087 3.49353 3.07254 3.49353 2.83337C3.49353 2.59421 3.69186 2.39587 3.93103 2.39587H10.4644C11.7419 2.39587 12.1502 2.92671 12.2844 3.24171C12.4127 3.55671 12.5002 4.22171 11.5902 5.13171L10.8902 5.83171C10.7444 5.97754 10.6627 6.18171 10.6685 6.38587C10.6744 6.56087 10.7444 6.71837 10.8669 6.82921L11.5902 7.54671C12.4827 8.43921 12.3952 9.10421 12.2669 9.42504C12.1327 9.73421 11.7185 10.2709 10.4644 10.2709Z" fill="white" fill-opacity="0.87"/>
</svg>
