<svg width="79" height="86" viewBox="0 0 79 86" fill="none" xmlns="http://www.w3.org/2000/svg">
<path d="M26.8706 20.9926C25.5358 20.9926 24.429 19.7981 24.429 18.3577V7.81812C24.429 6.37771 25.5358 5.18323 26.8706 5.18323C28.2054 5.18323 29.3123 6.37771 29.3123 7.81812V18.3577C29.3123 19.7981 28.2054 20.9926 26.8706 20.9926Z" fill="white" fill-opacity="0.98"/>
<path d="M52.9151 20.9926C51.5803 20.9926 50.4734 19.7981 50.4734 18.3577V7.81812C50.4734 6.37771 51.5803 5.18323 52.9151 5.18323C54.2498 5.18323 55.3567 6.37771 55.3567 7.81812V18.3577C55.3567 19.7981 54.2498 20.9926 52.9151 20.9926Z" fill="white" fill-opacity="0.98"/>
<path d="M28.4984 51.7331C28.0752 51.7331 27.652 51.6277 27.2613 51.4521C26.8381 51.2764 26.5125 51.0304 26.187 50.7142C25.601 50.0467 25.2429 49.1685 25.2429 48.2199C25.2429 47.7632 25.3405 47.3065 25.5033 46.8849C25.6661 46.4633 25.894 46.0769 26.187 45.7256C26.5125 45.4094 26.8381 45.1634 27.2613 44.9877C28.4333 44.4607 29.8983 44.7419 30.8099 45.7256C31.3959 46.3931 31.754 47.3065 31.754 48.2199C31.754 48.4307 31.7214 48.6767 31.6889 48.9226C31.6563 49.1334 31.5912 49.3441 31.4935 49.5549C31.4284 49.7657 31.3308 49.9765 31.2005 50.1873C31.1029 50.3629 30.9401 50.5386 30.8099 50.7142C30.1913 51.3466 29.3449 51.7331 28.4984 51.7331Z" fill="white" fill-opacity="0.98"/>
<path d="M39.8928 51.7331C39.4696 51.7331 39.0464 51.6277 38.6557 51.4521C38.2325 51.2764 37.9069 51.0304 37.5814 50.7142C36.9954 50.0467 36.6373 49.1685 36.6373 48.2199C36.6373 47.7632 36.7349 47.3064 36.8977 46.8849C37.0605 46.4633 37.2884 46.0769 37.5814 45.7256C37.9069 45.4094 38.2325 45.1634 38.6557 44.9877C39.8277 44.4256 41.2927 44.7419 42.2043 45.7256C42.7903 46.3931 43.1484 47.3065 43.1484 48.2199C43.1484 48.4307 43.1158 48.6766 43.0833 48.9226C43.0507 49.1334 42.9856 49.3441 42.8879 49.5549C42.8228 49.7657 42.7252 49.9765 42.5949 50.1873C42.4973 50.3629 42.3345 50.5386 42.2043 50.7142C41.5857 51.3466 40.7393 51.7331 39.8928 51.7331Z" fill="white" fill-opacity="0.98"/>
<path d="M51.2873 51.7331C50.8641 51.7331 50.4408 51.6277 50.0502 51.4521C49.627 51.2764 49.3014 51.0304 48.9759 50.7142C48.8456 50.5386 48.7154 50.3629 48.5852 50.1873C48.455 49.9765 48.3573 49.7657 48.2922 49.5549C48.1945 49.3441 48.1294 49.1334 48.0969 48.9226C48.0643 48.6766 48.0317 48.4307 48.0317 48.2199C48.0317 47.3065 48.3899 46.3931 48.9759 45.7256C49.3014 45.4094 49.627 45.1634 50.0502 44.9877C51.2547 44.4256 52.6872 44.7419 53.5987 45.7256C54.1847 46.3931 54.5429 47.3065 54.5429 48.2199C54.5429 48.4307 54.5103 48.6766 54.4777 48.9226C54.4452 49.1334 54.3801 49.3441 54.2824 49.5549C54.2173 49.7657 54.1196 49.9765 53.9894 50.1873C53.8917 50.3629 53.729 50.5386 53.5987 50.7142C52.9802 51.3466 52.1337 51.7331 51.2873 51.7331Z" fill="white" fill-opacity="0.98"/>
<path d="M28.4984 64.0293C28.0752 64.0293 27.652 63.924 27.2613 63.7483C26.8706 63.5727 26.5125 63.3267 26.187 63.0105C25.601 62.343 25.2429 61.4296 25.2429 60.5161C25.2429 60.0594 25.3405 59.6027 25.5033 59.1811C25.6661 58.7244 25.894 58.338 26.187 58.0218C27.3915 56.7219 29.6053 56.7219 30.8099 58.0218C31.3959 58.6893 31.754 59.6027 31.754 60.5161C31.754 61.4296 31.3959 62.343 30.8099 63.0105C30.1913 63.6428 29.3449 64.0293 28.4984 64.0293Z" fill="white" fill-opacity="0.98"/>
<path d="M39.8928 64.0293C39.0464 64.0293 38.1999 63.6428 37.5814 63.0105C36.9954 62.343 36.6373 61.4296 36.6373 60.5161C36.6373 60.0594 36.7349 59.6027 36.8977 59.1811C37.0605 58.7244 37.2884 58.338 37.5814 58.0218C38.7859 56.7219 40.9997 56.7219 42.2043 58.0218C42.4973 58.338 42.7251 58.7244 42.8879 59.1811C43.0507 59.6027 43.1484 60.0594 43.1484 60.5161C43.1484 61.4296 42.7903 62.343 42.2043 63.0105C41.5857 63.6428 40.7393 64.0293 39.8928 64.0293Z" fill="white" fill-opacity="0.98"/>
<path d="M51.2873 64.0294C50.4408 64.0294 49.5944 63.6429 48.9759 63.0105C48.6829 62.6944 48.455 62.3079 48.2922 61.8512C48.1294 61.4296 48.0317 60.9729 48.0317 60.5162C48.0317 60.0595 48.1294 59.6028 48.2922 59.1812C48.455 58.7245 48.6829 58.338 48.9759 58.0219C49.7246 57.2138 50.8641 56.8273 51.9058 57.0732C52.1337 57.1084 52.3291 57.1786 52.5244 57.284C52.7197 57.3543 52.9151 57.4598 53.1104 57.6003C53.2732 57.7057 53.436 57.8813 53.5987 58.0219C54.1847 58.6894 54.5429 59.6028 54.5429 60.5162C54.5429 61.4296 54.1847 62.343 53.5987 63.0105C52.9802 63.6429 52.1337 64.0294 51.2873 64.0294Z" fill="white" fill-opacity="0.98"/>
<path d="M67.565 35.3615H12.2206C10.8858 35.3615 9.77893 34.167 9.77893 32.7266C9.77893 31.2862 10.8858 30.0917 12.2206 30.0917H67.565C68.8998 30.0917 70.0067 31.2862 70.0067 32.7266C70.0067 34.167 68.8998 35.3615 67.565 35.3615Z" fill="white" fill-opacity="0.98"/>
<path d="M52.9151 80.7169H26.8706C14.9879 80.7169 8.15118 73.3392 8.15118 60.5161V30.6539C8.15118 17.8307 14.9879 10.453 26.8706 10.453H52.9151C64.7979 10.453 71.6345 17.8307 71.6345 30.6539V60.5161C71.6345 73.3392 64.7979 80.7169 52.9151 80.7169ZM26.8706 15.7228C17.5597 15.7228 13.0345 20.6061 13.0345 30.6539V60.5161C13.0345 70.5638 17.5597 75.4471 26.8706 75.4471H52.9151C62.226 75.4471 66.7512 70.5638 66.7512 60.5161V30.6539C66.7512 20.6061 62.226 15.7228 52.9151 15.7228H26.8706Z" fill="white" fill-opacity="0.98"/>
</svg>
