<svg width="60" height="51" viewBox="0 0 60 51" fill="none" xmlns="http://www.w3.org/2000/svg">
<path d="M13.5125 45.5382C10.7647 45.5382 9.02287 44.7472 7.91887 43.8104C5.75994 41.9786 4.23887 38.086 9.09647 29.8219L11.2309 26.2207C11.5007 25.742 11.5007 24.7428 11.2309 24.264L9.09647 20.6628C4.21434 12.3988 5.75994 8.48534 7.91887 6.67433C10.0533 4.8425 14.6655 3.53108 24.3807 7.67351L45.3813 16.5828C50.6069 18.7894 53.4773 21.8702 53.4773 25.2424C53.4773 28.6146 50.6069 31.6954 45.4058 33.9019L24.4053 42.8113C19.6458 44.8304 16.113 45.5382 13.5125 45.5382ZM13.5125 8.06902C12.1877 8.06902 11.1573 8.33963 10.5194 8.88085C8.72847 10.3796 9.43993 14.2722 12.3839 19.2473L14.5183 22.8693C15.3034 24.2224 15.3034 26.2624 14.5183 27.6154L12.3839 31.2166C9.43993 36.2125 8.72847 40.0843 10.5194 41.5831C12.2858 43.1027 16.8735 42.499 22.7615 40.0011L43.7621 31.0917C47.6138 29.4681 49.7973 27.324 49.7973 25.2216C49.7973 23.1191 47.5893 20.9751 43.7375 19.3514L22.737 10.4629C19.0079 8.88085 15.7941 8.06902 13.5125 8.06902Z" fill="#8687E7"/>
<path d="M26.8341 26.8036H13.5861C12.5802 26.8036 11.7461 26.0958 11.7461 25.2424C11.7461 24.3889 12.5802 23.6812 13.5861 23.6812H26.8341C27.84 23.6812 28.6741 24.3889 28.6741 25.2424C28.6741 26.0958 27.84 26.8036 26.8341 26.8036Z" fill="#8687E7"/>
</svg>
