<svg width="60" height="51" viewBox="0 0 60 51" fill="none" xmlns="http://www.w3.org/2000/svg">
<path d="M29.8784 46.0169C26.4192 46.0169 22.9355 44.8929 20.3104 42.6655L9.19682 33.2358C6.49815 30.946 5.07522 27.782 5.24695 24.5554L5.83575 14.1473C6.10562 9.17227 10.7424 5.23801 16.6304 4.98822L28.8971 4.48863C32.6998 4.36373 36.4288 5.55025 39.1275 7.84004L50.2411 17.2698C55.5158 21.7453 55.5158 29.0517 50.2411 33.5272L39.471 42.6655C36.8214 44.8929 33.3622 46.0169 29.8784 46.0169ZM11.7974 31.0085L22.911 40.4382C24.7755 42.0202 27.2534 42.8945 29.8784 42.8945C32.5035 42.8945 34.9814 42.0202 36.8459 40.4382L47.616 31.2999C49.4806 29.7179 50.511 27.6154 50.511 25.3881C50.511 23.1608 49.4806 21.0583 47.616 19.4763L36.5024 10.0466C34.5398 8.38126 31.8166 7.48616 29.0688 7.61106L16.8022 8.11065C12.8032 8.25636 9.68749 10.9 9.49122 14.2722L8.90242 24.6803C8.77975 27.0326 9.83469 29.3432 11.7974 31.0085Z" fill="white" fill-opacity="0.87"/>
<path d="M23.5734 26.8036C19.182 26.8036 15.6001 23.7644 15.6001 20.0383C15.6001 16.3122 19.182 13.2731 23.5734 13.2731C27.9649 13.2731 31.5468 16.3122 31.5468 20.0383C31.5468 23.7644 27.9649 26.8036 23.5734 26.8036ZM23.5734 16.3955C21.2182 16.3955 19.2801 18.04 19.2801 20.0383C19.2801 22.0367 21.2182 23.6812 23.5734 23.6812C25.9286 23.6812 27.8668 22.0367 27.8668 20.0383C27.8668 18.04 25.9286 16.3955 23.5734 16.3955Z" fill="white" fill-opacity="0.87"/>
</svg>
