<svg width="14" height="15" viewBox="0 0 14 15" fill="none" xmlns="http://www.w3.org/2000/svg">
<path d="M5.25143 1.81072C4.5319 1.81072 3.93643 2.40622 3.93643 3.12572V3.56149H1.75076C1.03098 3.56149 0.439178 4.15586 0.439178 4.87563V5.75058C0.439178 6.24753 0.720221 6.7014 1.1629 6.92288C1.21223 6.94756 1.26139 6.97254 1.31072 6.99722V11.8736C1.31072 12.5931 1.9062 13.1885 2.62571 13.1885H11.3735C12.0931 13.1885 12.6885 12.5931 12.6885 11.8736V6.99722C12.7381 6.97243 12.7877 6.94767 12.8372 6.92288C13.2799 6.70144 13.5601 6.24753 13.5601 5.75058V4.87563C13.5601 4.15586 12.9691 3.56149 12.2494 3.56149H10.0628V3.12572C10.0628 2.40622 9.46821 1.81072 8.74868 1.81072H5.25143ZM5.25143 2.68568H8.74868C8.99863 2.68568 9.18787 2.87578 9.18787 3.12572V3.56149H4.81139V3.12572C4.81139 2.87578 5.00149 2.68568 5.25143 2.68568ZM1.75076 4.43644H12.2494C12.4963 4.43644 12.6885 4.62865 12.6885 4.87563V5.75058C12.6885 5.91603 12.593 6.06707 12.4433 6.14192C10.6941 7.01706 8.94449 7.89121 7.1953 8.76678C7.07098 8.82895 6.92827 8.82895 6.80396 8.76678C5.05477 7.89121 3.30601 7.01706 1.5568 6.14192C1.4071 6.06702 1.31072 5.91603 1.31072 5.75058V4.87563C1.31072 4.62865 1.50378 4.43644 1.75076 4.43644ZM6.99963 7.06216C6.75802 7.06216 6.56215 7.25802 6.56215 7.49964C6.56215 7.74124 6.75801 7.93711 6.99963 7.93711C7.24124 7.93711 7.43711 7.74124 7.43711 7.49964C7.4371 7.25802 7.24124 7.06216 6.99963 7.06216ZM2.18652 7.4347C3.59467 8.1391 5.00221 8.84389 6.41006 9.5486C6.77991 9.73374 7.21935 9.73374 7.5892 9.5486C8.99709 8.84387 10.4054 8.13912 11.8136 7.4347V11.8736C11.8136 12.1235 11.6235 12.3127 11.3735 12.3127H2.62571C2.3758 12.3127 2.18652 12.1235 2.18652 11.8736V7.4347Z" fill="#A36200"/>
</svg>
