<svg width="575" height="641" viewBox="0 0 575 641" fill="none" xmlns="http://www.w3.org/2000/svg">
<path d="M575 490.237H0V490.557H575V490.237Z" fill="#EBEBEB"/>
<path d="M517.385 502.441H412.85V502.761H517.385V502.441Z" fill="#EBEBEB"/>
<path d="M380.903 498.967H352.28V499.287H380.903V498.967Z" fill="#EBEBEB"/>
<path d="M446.326 514.351H401.948V514.671H446.326V514.351Z" fill="#EBEBEB"/>
<path d="M86.365 512.197H60.329V512.517H86.365V512.197Z" fill="#EBEBEB"/>
<path d="M127.523 512.197H96.6V512.517H127.523V512.197Z" fill="#EBEBEB"/>
<path d="M258.922 506.787H205.056V507.107H258.922V506.787Z" fill="#EBEBEB"/>
<path d="M272.55 433.06H50.4965C48.7569 433.056 47.0897 432.283 45.8607 430.911C44.6317 429.539 43.9415 427.679 43.9415 425.739V77.7661C43.9566 75.838 44.6536 73.9945 45.8809 72.6358C47.1082 71.2772 48.7669 70.5133 50.4965 70.51H272.55C274.292 70.51 275.962 71.2812 277.193 72.6541C278.425 74.0269 279.117 75.8888 279.117 77.8302V425.739C279.117 427.681 278.425 429.543 277.193 430.916C275.962 432.288 274.292 433.06 272.55 433.06ZM50.4965 70.7664C48.8332 70.7698 47.2391 71.5088 46.064 72.8211C44.889 74.1334 44.229 75.9119 44.229 77.7661V425.739C44.229 427.594 44.889 429.372 46.064 430.684C47.2391 431.997 48.8332 432.736 50.4965 432.739H272.55C274.214 432.736 275.81 431.997 276.987 430.685C278.163 429.373 278.826 427.595 278.829 425.739V77.7661C278.826 75.9107 278.163 74.1323 276.987 72.8203C275.81 71.5084 274.214 70.7698 272.55 70.7664H50.4965Z" fill="#EBEBEB"/>
<path d="M521.306 433.06H299.241C297.501 433.056 295.832 432.284 294.602 430.912C293.371 429.54 292.678 427.68 292.675 425.739V77.7661C292.693 75.8369 293.393 73.9933 294.622 72.635C295.851 71.2768 297.511 70.5133 299.241 70.51H521.306C523.034 70.5167 524.69 71.2821 525.915 72.6403C527.14 73.9986 527.835 75.8402 527.85 77.7661V425.739C527.85 427.676 527.161 429.534 525.935 430.906C524.708 432.279 523.044 433.053 521.306 433.06ZM299.241 70.7664C297.577 70.7698 295.982 71.5084 294.805 72.8203C293.628 74.1323 292.966 75.9107 292.962 77.7661V425.739C292.966 427.595 293.628 429.373 294.805 430.685C295.982 431.997 297.577 432.736 299.241 432.739H521.306C522.971 432.736 524.566 431.997 525.743 430.685C526.92 429.373 527.582 427.595 527.585 425.739V77.7661C527.582 75.9107 526.92 74.1323 525.743 72.8203C524.566 71.5084 522.971 70.7698 521.306 70.7664H299.241Z" fill="#EBEBEB"/>
<path d="M60.3175 490.224H197.811L197.811 151.25H60.3175L60.3175 490.224Z" fill="#F0F0F0"/>
<path d="M60.329 490.224H191.303L191.303 151.25H60.329L60.329 490.224Z" fill="#F5F5F5"/>
<path d="M184.403 482.545L184.403 158.955H67.229L67.229 482.545H184.403Z" fill="#F0F0F0"/>
<path d="M105.087 311.526H81.2015C80.3881 311.523 79.6089 311.161 79.0337 310.52C78.4585 309.879 78.134 309.01 78.131 308.103C78.134 307.196 78.4585 306.328 79.0337 305.686C79.6089 305.045 80.3881 304.684 81.2015 304.68H105.087C105.9 304.684 106.68 305.045 107.255 305.686C107.83 306.328 108.154 307.196 108.158 308.103C108.154 309.01 107.83 309.879 107.255 310.52C106.68 311.161 105.9 311.523 105.087 311.526Z" fill="white"/>
<path d="M69.023 482.545L69.023 158.955H67.229L67.229 482.545H69.023Z" fill="#F0F0F0"/>
<path d="M262.235 483.801H282.704V384.831H262.235V483.801Z" fill="#F0F0F0"/>
<path d="M177.824 490.083H278.771V483.814H177.824V490.083Z" fill="#F0F0F0"/>
<path d="M262.235 384.844H173.892V483.814H262.235V384.844Z" fill="#F5F5F5"/>
<path d="M254.173 397.023H181.93V429.483H254.173V397.023Z" fill="#F0F0F0"/>
<path d="M254.173 439.162H181.93V471.622H254.173V439.162Z" fill="#F0F0F0"/>
<path d="M209.944 399.753H226.17C226.697 399.75 227.201 399.515 227.574 399.1C227.946 398.685 228.157 398.123 228.16 397.535C228.16 396.946 227.951 396.381 227.578 395.963C227.205 395.545 226.699 395.308 226.17 395.305H209.944C209.415 395.308 208.909 395.545 208.536 395.963C208.164 396.381 207.954 396.946 207.954 397.535C207.958 398.123 208.168 398.685 208.541 399.1C208.913 399.515 209.417 399.75 209.944 399.753Z" fill="#F5F5F5"/>
<path d="M209.944 441.905H226.17C226.691 441.902 227.191 441.673 227.562 441.266C227.934 440.859 228.148 440.306 228.16 439.726C228.157 439.139 227.946 438.577 227.574 438.161C227.201 437.746 226.697 437.512 226.17 437.508H209.944C209.417 437.512 208.913 437.746 208.541 438.161C208.168 438.577 207.958 439.139 207.954 439.726C207.966 440.306 208.181 440.859 208.552 441.266C208.924 441.673 209.423 441.902 209.944 441.905Z" fill="#F5F5F5"/>
<path d="M224.791 382.895C224.389 382.892 224.004 382.712 223.72 382.396C223.436 382.079 223.276 381.651 223.273 381.203V329.782C223.273 329.333 223.432 328.902 223.717 328.585C224.002 328.268 224.388 328.089 224.791 328.089C225.192 328.093 225.577 328.272 225.861 328.589C226.145 328.905 226.305 329.334 226.308 329.782V381.203C226.305 381.651 226.145 382.079 225.861 382.396C225.577 382.712 225.192 382.892 224.791 382.895Z" fill="#F5F5F5"/>
<path d="M238.993 380.895H210.588V384.882H238.993V380.895Z" fill="#F0F0F0"/>
<path d="M232.656 352.127C232.457 352.127 232.266 352.04 232.124 351.884C231.982 351.728 231.901 351.516 231.897 351.294V325.628C231.9 325.405 231.981 325.191 232.123 325.033C232.265 324.875 232.456 324.785 232.656 324.782C232.857 324.785 233.048 324.875 233.19 325.033C233.332 325.191 233.413 325.405 233.416 325.628V351.268C233.417 351.38 233.399 351.492 233.361 351.596C233.324 351.7 233.268 351.795 233.197 351.875C233.127 351.955 233.042 352.018 232.95 352.061C232.857 352.105 232.757 352.127 232.656 352.127Z" fill="#F0F0F0"/>
<path d="M202.699 334.474C202.699 334.474 203.262 310.244 224.791 310.244C246.319 310.244 246.871 334.448 246.871 334.448L202.699 334.474Z" fill="#F0F0F0"/>
<path d="M389.056 368.703C389.666 368.703 390.287 368.703 390.908 368.767C397.269 369.28 403.249 372.337 407.748 377.376C412.247 382.415 414.962 389.096 415.391 396.189C415.573 399.412 415.286 402.646 414.54 405.766C411.658 418.281 410.266 431.165 410.4 444.085V481.699C410.402 482.35 410.288 482.995 410.065 483.597C409.841 484.199 409.513 484.746 409.1 485.206C408.686 485.666 408.195 486.03 407.654 486.278C407.113 486.525 406.534 486.651 405.95 486.647H298.85V368.703H389.056Z" fill="#F0F0F0"/>
<path d="M272.458 398.125C272.469 393.943 273.281 389.812 274.838 386.007C276.395 382.202 278.662 378.811 281.488 376.061C284.314 373.31 287.634 371.263 291.226 370.056C294.818 368.849 298.599 368.51 302.318 369.062C306.037 369.613 309.607 371.043 312.791 373.254C315.975 375.466 318.699 378.41 320.782 381.888C322.864 385.367 324.257 389.3 324.868 393.427C325.479 397.553 325.293 401.777 324.323 405.817C321.449 418.334 320.061 431.217 320.194 444.136V481.75C320.194 482.399 320.08 483.042 319.856 483.642C319.633 484.241 319.306 484.786 318.894 485.245C318.481 485.703 317.992 486.066 317.453 486.314C316.915 486.561 316.338 486.687 315.756 486.686H281.934C281.353 486.686 280.777 486.558 280.24 486.31C279.702 486.062 279.214 485.698 278.803 485.24C278.392 484.782 278.066 484.238 277.843 483.639C277.621 483.04 277.506 482.398 277.506 481.75V441.88C277.604 429.763 276.227 417.688 273.412 405.984C272.778 403.424 272.457 400.781 272.458 398.125Z" fill="#F5F5F5"/>
<path d="M335.213 486.647H431.365V415.035H335.213V486.647Z" fill="#F0F0F0"/>
<path d="M510.83 431.239H382.133V321.41C382.133 315.508 384.237 309.847 387.981 305.673C391.725 301.499 396.803 299.155 402.097 299.155H490.866C496.161 299.155 501.239 301.499 504.983 305.673C508.727 309.847 510.83 315.508 510.83 321.41V431.239Z" fill="#E0E0E0"/>
<path d="M485.68 431.239H356.983V320.333C356.983 314.713 358.986 309.323 362.551 305.349C366.116 301.375 370.951 299.142 375.992 299.142H466.624C471.666 299.142 476.501 301.375 480.066 305.349C483.631 309.323 485.633 314.713 485.633 320.333V431.239H485.68Z" fill="#F5F5F5"/>
<path d="M425.086 437.662H336.456C334.931 437.662 333.468 436.987 332.39 435.785C331.311 434.582 330.706 432.952 330.706 431.252V415.009C330.706 413.309 331.311 411.679 332.39 410.476C333.468 409.274 334.931 408.599 336.456 408.599H425.086C425.547 408.599 425.988 408.803 426.314 409.166C426.64 409.529 426.823 410.021 426.823 410.535V435.739C426.82 436.25 426.635 436.739 426.31 437.1C425.985 437.46 425.545 437.662 425.086 437.662Z" fill="#E0E0E0"/>
<path d="M520.317 368.703C520.927 368.703 521.536 368.703 522.169 368.767C528.528 369.283 534.506 372.341 539.002 377.38C543.499 382.418 546.211 389.098 546.641 396.189C546.834 399.412 546.547 402.648 545.79 405.766C542.906 418.285 541.514 431.173 541.65 444.098V481.712C541.65 482.361 541.535 483.004 541.312 483.603C541.089 484.203 540.761 484.748 540.349 485.206C539.937 485.665 539.447 486.028 538.909 486.275C538.37 486.523 537.793 486.649 537.211 486.647H430.1V368.703H520.317Z" fill="#F0F0F0"/>
<path d="M403.719 398.125C403.673 390.458 406.314 383.073 411.081 377.546C415.847 372.018 422.362 368.784 429.237 368.533C436.111 368.283 442.801 371.035 447.882 376.203C452.963 381.372 456.032 388.548 456.435 396.202C456.617 399.425 456.329 402.659 455.584 405.779C452.701 418.294 451.309 431.177 451.444 444.098V481.712C451.444 483.021 450.978 484.276 450.147 485.202C449.317 486.127 448.191 486.647 447.016 486.647H413.184C412.602 486.647 412.026 486.52 411.489 486.272C410.952 486.024 410.464 485.66 410.053 485.202C409.642 484.743 409.316 484.199 409.093 483.6C408.871 483.002 408.756 482.36 408.756 481.712V441.88C408.852 429.764 407.479 417.689 404.674 405.984C404.039 403.424 403.718 400.781 403.719 398.125Z" fill="#F5F5F5"/>
<path d="M300.725 490.237H518.431C518.854 490.237 519.272 490.144 519.662 489.963C520.052 489.783 520.406 489.518 520.704 489.185C521.002 488.851 521.238 488.455 521.399 488.02C521.56 487.584 521.641 487.118 521.64 486.647H297.516C297.515 487.118 297.597 487.584 297.757 488.02C297.918 488.455 298.154 488.851 298.452 489.185C298.75 489.518 299.104 489.783 299.494 489.963C299.884 490.144 300.303 490.237 300.725 490.237Z" fill="#E0E0E0"/>
<path d="M429.663 215.209H499.687V130.072H429.663V215.209Z" fill="#E0E0E0"/>
<path d="M425.488 215.209H497.329V130.072H425.488V215.209Z" fill="#F5F5F5"/>
<path d="M491.303 208.505V136.777H431.491V208.505H491.303Z" fill="white"/>
<path d="M461.403 154.507L477.756 186.095H445.05L461.403 154.507Z" fill="#F5F5F5"/>
<path d="M331.43 264.912H401.453V179.775H331.43V264.912Z" fill="#E0E0E0"/>
<path d="M327.256 264.912H399.096V179.775H327.256V264.912Z" fill="#F5F5F5"/>
<path d="M393.07 258.208V186.48H333.259V258.208H393.07Z" fill="white"/>
<path d="M355.856 235.132L348.76 221.427C348.022 219.997 347.635 218.375 347.636 216.725C347.638 215.074 348.029 213.454 348.77 212.025C349.511 210.596 350.576 209.41 351.858 208.585C353.14 207.76 354.594 207.326 356.074 207.325H370.3C371.78 207.327 373.233 207.763 374.515 208.587C375.797 209.412 376.862 210.598 377.603 212.026C378.345 213.453 378.738 215.073 378.741 216.723C378.745 218.373 378.36 219.995 377.625 221.427L370.53 235.132C369.79 236.573 368.722 237.771 367.434 238.604C366.146 239.437 364.682 239.876 363.193 239.876C361.704 239.876 360.24 239.437 358.952 238.604C357.664 237.771 356.596 236.573 355.856 235.132Z" fill="#F5F5F5"/>
<path d="M363.975 127.303H98.877L116.323 529.774H381.42L363.975 127.303Z" fill="#D7D7D7"/>
<path opacity="0.2" d="M363.975 127.303H98.877L116.323 529.774H381.42L363.975 127.303Z" fill="black"/>
<path d="M366.425 127.303H101.327L118.784 529.774H383.882L366.425 127.303Z" fill="#D7D7D7"/>
<path opacity="0.2" d="M352.429 140.841H113.448L130.145 511.582L337.95 511.274L372.485 477.148L352.429 140.841Z" fill="black"/>
<path d="M354.258 140.828C356.806 251.857 364.849 362.645 378.35 472.686C359.413 487.216 340.573 501.745 321.828 516.274H143.095C126.224 391.934 116.323 266.542 113.448 140.828H354.258Z" fill="white"/>
<path d="M378.35 472.686C359.413 487.216 340.572 501.745 321.827 516.274C325.921 497.044 330.188 477.814 334.627 458.584L378.35 472.686Z" fill="#EBEBEB"/>
<path d="M178.25 174.749C178.702 188.322 179.231 201.902 179.837 215.491H143.302C142.688 201.902 142.159 188.322 141.715 174.749H178.25ZM181.976 170.455H137.724C138.238 186.89 138.878 203.334 139.645 219.786H183.908C183.141 203.342 182.501 186.899 181.987 170.455H181.976Z" fill="#D7D7D7"/>
<path d="M327.543 190.044H202.4C202.285 186.98 202.182 183.903 202.078 180.839H327.21C327.313 183.903 327.428 186.98 327.543 190.044Z" fill="#E0E0E0"/>
<path d="M301.104 209.402H203.17C203.044 206.325 202.906 203.261 202.791 200.197H300.713C300.844 203.265 300.974 206.334 301.104 209.402Z" fill="#E0E0E0"/>
<path d="M181.838 254.541C182.605 268.13 183.46 281.72 184.403 295.309H147.856C146.913 281.72 146.058 268.13 145.291 254.541H181.838ZM185.449 250.246H141.197C142.102 266.699 143.133 283.151 144.291 299.603H188.6C187.45 283.16 186.415 266.707 185.495 250.246H185.449Z" fill="#D7D7D7"/>
<path d="M252.31 269.848H206.31C206.126 266.771 205.93 263.707 205.758 260.631H251.758C251.93 263.707 252.114 266.771 252.31 269.848Z" fill="#E0E0E0"/>
<path d="M295.86 269.848H262.039C261.855 266.771 261.66 263.707 261.487 260.631H295.308C295.481 263.707 295.665 266.771 295.86 269.848Z" fill="#E0E0E0"/>
<path d="M317.09 289.219H207.575C207.368 286.142 207.172 283.078 206.965 280.002H316.48C316.687 283.078 316.883 286.142 317.09 289.219Z" fill="#E0E0E0"/>
<path d="M187.324 334.371C188.42 347.96 189.601 361.55 190.866 375.139H154.318C153.053 361.55 151.873 347.96 150.776 334.371H187.324ZM190.842 330.077H146.579C147.882 346.537 149.308 362.994 150.857 379.446H195.121C193.587 362.985 192.161 346.529 190.842 330.077Z" fill="#D7D7D7"/>
<path d="M338.215 359.845H213.061L213.889 369.049H339.043L338.215 359.845Z" fill="#E0E0E0"/>
<path d="M309.35 340.474H211.416C211.669 343.538 211.922 346.614 212.186 349.678H310.109C309.856 346.614 309.591 343.576 309.35 340.474Z" fill="#E0E0E0"/>
<path d="M194.718 414.201C196.144 427.791 197.651 441.376 199.238 454.956H162.691C161.104 441.384 159.597 427.799 158.171 414.201H194.718ZM198.168 409.907H153.87C155.557 426.368 157.378 442.816 159.333 459.251H203.55C201.61 442.816 199.79 426.368 198.088 409.907H198.168Z" fill="#D7D7D7"/>
<path d="M345.104 429.47H219.949C219.615 426.393 219.282 423.329 218.96 420.252H344.103C344.437 423.368 344.759 426.432 345.104 429.47Z" fill="#E0E0E0"/>
<path d="M279.093 448.867H222.122C221.766 445.803 221.421 442.726 221.076 439.662H278.047C278.392 442.726 278.737 445.803 279.093 448.867Z" fill="#E0E0E0"/>
<path d="M313.11 448.867H288.512C288.155 445.803 287.81 442.726 287.465 439.662H312.064C312.409 442.726 312.8 445.803 313.11 448.867Z" fill="#E0E0E0"/>
<path d="M162.15 209.671L160.528 206.799C156.986 200.518 149.764 194.915 147.269 193.274L149.132 189.595C154.028 192.909 158.402 197.097 162.081 201.992C167.647 193.544 175.881 184.813 187.151 175.429L189.531 178.89C177.502 188.928 169.085 198.12 163.772 206.966L162.15 209.671Z" fill="#D7D7D7"/>
<path d="M166.52 289.488L164.83 286.617C161.15 280.335 153.79 274.72 151.26 273.079L153.019 269.399C158.008 272.715 162.486 276.905 166.278 281.809C171.637 273.348 179.653 264.618 190.704 255.221C191.521 256.374 192.349 257.528 193.165 258.695C181.378 268.746 173.179 277.925 168.084 286.783C167.555 287.681 167.038 288.591 166.52 289.488Z" fill="#D7D7D7"/>
<path d="M172.868 369.524L171.109 366.652C167.268 360.37 159.77 354.755 157.205 353.127C157.757 351.845 158.355 350.665 158.884 349.448C163.951 352.768 168.522 356.951 172.431 361.844C177.595 353.383 185.403 344.666 196.213 335.256L198.766 338.73C187.266 348.781 179.216 357.96 174.352 366.819L172.868 369.524Z" fill="#D7D7D7"/>
<path d="M288.799 494.16C282.014 494.16 278.104 491.365 274.654 488.903C271.204 486.442 268.237 484.314 262.51 484.314C256.783 484.314 254.23 486.545 251.528 488.903C248.825 491.262 245.513 494.16 238.728 494.16C231.943 494.16 228.033 491.365 224.595 488.903C221.156 486.442 218.189 484.314 212.451 484.314C206.712 484.314 204.171 486.545 201.468 488.903C198.766 491.262 195.454 494.16 188.681 494.16C181.907 494.16 177.986 491.365 174.536 488.903C171.086 486.442 168.13 484.314 162.392 484.314C162.242 483.032 162.081 481.852 161.931 480.622C168.716 480.622 172.615 483.416 176.065 485.878C179.515 488.339 182.47 490.468 188.197 490.468C193.924 490.468 196.477 488.237 199.18 485.878C201.882 483.519 205.206 480.622 211.991 480.622C218.776 480.622 222.663 483.416 226.113 485.878C229.563 488.339 232.53 490.468 238.257 490.468C243.984 490.468 246.537 488.237 249.239 485.878C251.942 483.519 255.265 480.622 262.05 480.622C268.835 480.622 272.734 483.416 276.184 485.878C279.634 488.339 282.589 490.468 288.328 490.468C288.477 491.698 288.65 492.929 288.799 494.16Z" fill="#EBEBEB"/>
<path d="M298.528 137.264C294.641 125.726 285.66 118.149 276 118.149H256.312C254.846 118.135 253.417 117.641 252.2 116.73C250.984 115.818 250.035 114.529 249.469 113.021C248.078 109.336 245.75 106.185 242.774 103.956C239.797 101.726 236.3 100.514 232.714 100.47C229.245 100.431 225.855 101.627 223.038 103.885C220.221 106.142 218.123 109.343 217.051 113.021C216.614 114.526 215.757 115.836 214.604 116.758C213.452 117.681 212.064 118.168 210.645 118.149H190.969C181.297 118.149 172.971 125.764 170.096 137.264L168.946 141.84H300.046L298.528 137.264Z" fill="#8687E7"/>
<path d="M299.23 146.353H170.2C169.112 146.339 168.069 145.866 167.281 145.028C166.494 144.191 166.02 143.052 165.956 141.84C165.928 141.259 166.007 140.676 166.188 140.13C166.37 139.583 166.649 139.084 167.01 138.662C167.371 138.241 167.806 137.906 168.287 137.679C168.768 137.451 169.286 137.336 169.809 137.341H298.839C299.925 137.355 300.967 137.826 301.754 138.661C302.541 139.496 303.016 140.632 303.082 141.84C303.112 142.423 303.035 143.007 302.854 143.555C302.674 144.103 302.394 144.604 302.033 145.027C301.672 145.45 301.237 145.786 300.755 146.014C300.273 146.242 299.754 146.358 299.23 146.353Z" fill="#BCBDFF"/>
<path opacity="0.2" d="M299.23 146.353H170.2C169.112 146.339 168.069 145.866 167.281 145.028C166.494 144.191 166.02 143.052 165.956 141.84C165.928 141.259 166.007 140.676 166.188 140.13C166.37 139.583 166.649 139.084 167.01 138.662C167.371 138.241 167.806 137.906 168.287 137.679C168.768 137.451 169.286 137.336 169.809 137.341H298.839C299.925 137.355 300.967 137.826 301.754 138.661C302.541 139.496 303.016 140.632 303.082 141.84C303.112 142.423 303.035 143.007 302.854 143.555C302.674 144.103 302.394 144.604 302.033 145.027C301.672 145.45 301.237 145.786 300.755 146.014C300.273 146.242 299.754 146.358 299.23 146.353Z" fill="black"/>
<path d="M415.058 525.915H406.628L405.789 504.159H414.218L415.058 525.915Z" fill="#FFC3BD"/>
<path d="M465.646 525.915H457.217L452.985 504.159H461.403L465.646 525.915Z" fill="#FFC3BD"/>
<path d="M456.619 524.825H466.084C466.25 524.824 466.412 524.887 466.542 525.004C466.672 525.121 466.762 525.284 466.797 525.466L468.464 533.825C468.502 534.028 468.498 534.237 468.454 534.438C468.41 534.639 468.325 534.827 468.207 534.987C468.089 535.147 467.94 535.275 467.772 535.362C467.603 535.45 467.419 535.494 467.234 535.491C463.933 535.427 462.323 535.209 458.16 535.209C455.596 535.209 450.317 535.504 446.787 535.504C443.256 535.504 442.785 531.658 444.234 531.261C450.731 529.671 453.169 527.492 455.251 525.402C455.628 525.031 456.115 524.825 456.619 524.825Z" fill="#263238"/>
<path d="M406.686 524.825H415.886C416.053 524.824 416.215 524.887 416.345 525.004C416.475 525.121 416.565 525.284 416.599 525.466L418.266 533.825C418.307 534.021 418.309 534.224 418.271 534.421C418.232 534.618 418.156 534.802 418.045 534.962C417.935 535.121 417.795 535.251 417.634 535.343C417.474 535.435 417.297 535.485 417.116 535.491C413.793 535.427 408.997 535.209 404.823 535.209C399.947 535.209 395.738 535.504 390.011 535.504C386.561 535.504 385.595 531.658 387.044 531.261C393.633 529.646 399.016 529.479 404.708 525.556C405.297 525.12 405.98 524.867 406.686 524.825Z" fill="#263238"/>
<path d="M423.2 183.223C422.05 190.095 421.383 198.607 425.696 203.197C425.696 203.197 423.223 210.171 411.769 210.171C401.304 210.171 406.548 203.197 406.548 203.197C413.448 201.364 413.057 191.89 411.861 186.531L423.2 183.223Z" fill="#FFC3BD"/>
<path d="M403.259 204.159C403.489 202.453 406.18 200.466 409.239 199.723C412.298 198.979 424.051 197.325 427.639 198.979C431.227 200.633 427.018 205.53 427.018 205.53L403.259 204.159Z" fill="#D7D7D7"/>
<path opacity="0.4" d="M403.259 204.159C403.489 202.453 406.18 200.466 409.239 199.723C412.298 198.979 424.051 197.325 427.639 198.979C431.227 200.633 427.018 205.53 427.018 205.53L403.259 204.159Z" fill="white"/>
<path opacity="0.2" d="M405.789 504.172L406.226 515.377H414.656L414.219 504.172H405.789Z" fill="black"/>
<path opacity="0.2" d="M461.414 504.172H452.985L455.17 515.377H463.599L461.414 504.172Z" fill="black"/>
<path d="M443.152 211.658L432.998 219.222C432.998 219.222 447.58 248.131 446.361 252.759C444.693 259.067 442.37 272.848 439.208 279.848C439.622 281.361 441.726 284.809 442.899 285.399C450.949 278.579 459.08 257.195 458.781 251.208C458.079 237.632 443.152 211.658 443.152 211.658Z" fill="#FFC3BD"/>
<path d="M439.208 279.873L431.158 279.181L435.378 289.065C435.378 289.065 442.405 289.411 443.578 283.425L439.208 279.873Z" fill="#B55B52"/>
<path d="M478.998 328.077L478.32 329.5L473.766 339.102L312.099 243.811L317.319 232.786L478.998 328.077Z" fill="#D7D7D7"/>
<path d="M489.451 306.065L486.116 313.09L484.23 317.064L322.552 221.773L327.773 210.748L489.451 306.065Z" fill="#D7D7D7"/>
<path d="M322.605 221.741L317.373 232.752L478.985 328.184L484.218 317.172L322.605 221.741Z" fill="#D7D7D7"/>
<path opacity="0.2" d="M322.605 221.741L317.373 232.752L478.985 328.184L484.218 317.172L322.605 221.741Z" fill="black"/>
<path d="M305.129 212.209L300.426 222.132L312.099 243.811L327.773 210.761L305.129 212.209Z" fill="#D7D7D7"/>
<path opacity="0.8" d="M305.129 212.209L300.426 222.132L312.099 243.811L327.773 210.761L305.129 212.209Z" fill="white"/>
<path d="M295.424 212.838L300.426 222.132L305.129 212.209L295.424 212.838Z" fill="#D7D7D7"/>
<path d="M424.683 283.681L428.893 292.424L435.413 289.065L431.193 279.181L424.683 283.681Z" fill="#B55B52"/>
<path d="M440.737 205.325C448.707 206.607 457.838 237.375 457.838 237.375L441.094 247.913C441.094 247.913 433.723 233.324 430.1 222.427C426.282 211.03 432.193 203.941 440.737 205.325Z" fill="#8687E7"/>
<path opacity="0.2" d="M436.103 215.876C432.48 212.184 434.7 227.991 436.425 238.106C437.31 240.08 438.15 241.875 438.863 243.375C442.899 235.427 441.094 220.966 436.103 215.876Z" fill="black"/>
<path d="M393.541 205.812C393.541 205.812 383.594 234.17 393.035 286.989H438.15C438.46 279.297 434.113 241.657 440.783 205.325C435.801 204.253 430.761 203.542 425.695 203.197C419.318 202.786 412.925 202.786 406.548 203.197C402.158 203.686 397.809 204.561 393.541 205.812Z" fill="#8687E7"/>
<path d="M400.476 218.991L389.114 213.979C389.114 213.979 376.027 243.759 371.864 245.259C366.263 247.311 354.763 252.951 347.794 254.054C346.92 255.336 345.563 259.182 345.782 260.592C355.384 264.092 375.82 259.451 380.052 255.785C389.758 247.426 400.476 218.991 400.476 218.991Z" fill="#FFC3BD"/>
<path opacity="0.2" d="M401.752 215.607C399.878 210.786 396.29 208.774 392.552 209.479C391.103 215.389 388.654 228.376 389.102 247.939L391.782 249.375C391.782 249.375 404.961 223.85 401.752 215.607Z" fill="black"/>
<path d="M403.547 212.235C406.376 220.645 392.047 245.388 392.047 245.388L375.187 235.132C377.72 227.436 380.986 220.065 384.928 213.145C390.851 203.287 400.43 203.018 403.547 212.235Z" fill="#8687E7"/>
<path d="M348.208 254.028L338.181 256.4L343.263 266.746C346.066 265.191 348.613 263.119 350.796 260.618L348.208 254.028Z" fill="#FFC3BD"/>
<path d="M333.442 258.746L337.444 264.925L343.263 266.797L338.18 256.451L333.442 258.746Z" fill="#FFC3BD"/>
<path d="M404.087 173.339C404.087 174.096 403.661 174.621 403.213 174.621C402.764 174.621 402.442 173.955 402.488 173.198C402.534 172.442 402.914 171.916 403.362 171.916C403.811 171.916 404.133 172.583 404.087 173.339Z" fill="#263238"/>
<path d="M404.685 173.403C403.756 175.662 402.553 177.767 401.109 179.659C401.553 180.06 402.07 180.347 402.624 180.5C403.179 180.652 403.757 180.668 404.317 180.544L404.685 173.403Z" fill="#ED847E"/>
<path d="M403.224 170.724C403.163 170.71 403.105 170.684 403.052 170.647C403.007 170.616 402.969 170.575 402.939 170.527C402.909 170.479 402.888 170.424 402.877 170.367C402.866 170.309 402.866 170.25 402.876 170.192C402.887 170.135 402.907 170.08 402.937 170.032C403.27 169.431 403.726 168.928 404.268 168.562C404.81 168.197 405.422 167.98 406.053 167.929C406.158 167.935 406.258 167.985 406.332 168.067C406.406 168.15 406.45 168.261 406.456 168.378C406.456 168.497 406.414 168.611 406.338 168.695C406.263 168.779 406.16 168.827 406.053 168.827C405.563 168.878 405.09 169.056 404.673 169.348C404.255 169.639 403.905 170.036 403.65 170.506C403.608 170.587 403.545 170.652 403.469 170.691C403.392 170.73 403.307 170.742 403.224 170.724Z" fill="#263238"/>
<path d="M426.949 172.685C425.96 181.941 425.799 187.403 421.348 191.915C414.644 198.684 404.581 193.774 403.063 184.364C401.706 175.903 403.558 162.199 411.907 159.019C413.744 158.311 415.713 158.137 417.627 158.515C419.542 158.893 421.337 159.81 422.844 161.179C424.351 162.549 425.519 164.324 426.238 166.338C426.956 168.352 427.201 170.537 426.949 172.685Z" fill="#FFC3BD"/>
<path d="M410.216 174.493C407.307 175.134 402.661 167.929 406.456 161.814C404.535 160.75 398.268 164.955 395.91 161.032C393.553 157.109 400.096 155.019 398.843 151.699C403.282 152.712 395.968 158.891 400.188 158.289C404.409 157.686 409.273 148.994 413.988 152.558C422.326 158.801 433.688 148.392 429.054 161.429C434.735 160.147 438.622 167.634 433.205 172.826C422.407 183.147 429.054 184.505 422.211 185.031C418.784 185.313 410.814 180.762 410.216 174.493Z" fill="#263238"/>
<path d="M414.529 176.916C414.131 177.841 413.571 178.669 412.881 179.349C412.192 180.029 411.388 180.549 410.516 180.877C408.216 181.762 406.893 179.467 407.434 176.942C407.917 174.66 409.734 171.455 412.114 171.685C412.636 171.742 413.138 171.944 413.572 172.273C414.006 172.602 414.36 173.047 414.6 173.567C414.84 174.087 414.96 174.667 414.947 175.252C414.935 175.837 414.791 176.409 414.529 176.916Z" fill="#FFC3BD"/>
<path d="M409.021 286.988C409.021 286.988 418.588 358.78 423.832 385.702C429.582 415.188 451.237 513.249 451.237 513.249H466.67C466.67 513.249 452.399 417.535 449.11 388.369C445.556 356.729 438.104 287.027 438.104 287.027L409.021 286.988Z" fill="#D7D7D7"/>
<path opacity="0.2" d="M409.021 286.988C409.021 286.988 418.588 358.78 423.832 385.702C429.582 415.188 451.237 513.249 451.237 513.249H466.67C466.67 513.249 452.399 417.535 449.11 388.369C445.556 356.729 438.104 287.027 438.104 287.027L409.021 286.988Z" fill="white"/>
<path opacity="0.2" d="M420.382 312.09C419.669 310.962 419.026 310.577 418.428 310.808H418.301C418.165 310.874 418.037 310.961 417.922 311.064C417.799 311.175 417.687 311.3 417.588 311.436L417.404 311.693L417.163 312.116C416.963 312.489 416.79 312.879 416.645 313.282C416.553 313.526 416.461 313.782 416.381 314.039C416.3 314.295 416.174 314.693 416.082 315.052C415.99 315.41 415.817 316.026 415.691 316.551C415.691 316.692 415.633 316.821 415.599 316.962C415.564 317.103 415.472 317.551 415.415 317.846C415.357 318.141 415.311 318.359 415.265 318.615C415.162 319.115 415.07 319.641 414.978 320.18C414.886 320.718 414.782 321.346 414.69 321.949C414.69 322.154 414.633 322.359 414.598 322.577C414.483 323.346 414.38 324.128 414.276 324.936C416.829 342.807 419.865 363.293 422.326 377.587C422.441 377.126 422.567 376.639 422.671 376.113C423.173 373.728 423.557 371.315 423.821 368.883C425.994 350.46 424.994 319.436 420.382 312.09Z" fill="black"/>
<path d="M393.035 286.988C393.035 286.988 391.885 357.216 392.794 385.869C393.748 415.663 403.086 513.21 403.086 513.21H417.358C417.358 513.21 417.875 417.394 418.508 388.138C419.198 356.242 422.648 286.988 422.648 286.988H393.035Z" fill="#D7D7D7"/>
<path opacity="0.2" d="M393.035 286.988C393.035 286.988 391.885 357.216 392.794 385.869C393.748 415.663 403.086 513.21 403.086 513.21H417.358C417.358 513.21 417.875 417.394 418.508 388.138C419.198 356.242 422.648 286.988 422.648 286.988H393.035Z" fill="white"/>
<path d="M418.301 508.339C418.358 508.339 418.301 513.531 418.301 513.531H401.845L401.155 507.698L418.301 508.339Z" fill="#263238"/>
<path d="M466.67 508.723C466.739 508.723 467.441 513.531 467.441 513.531H450.478L448.983 508.018L466.67 508.723Z" fill="#263238"/>
<path d="M453.836 526.466C453.263 526.518 452.691 526.351 452.215 525.992C452.06 525.852 451.94 525.67 451.868 525.463C451.795 525.256 451.772 525.032 451.801 524.812C451.802 524.684 451.833 524.559 451.892 524.449C451.95 524.338 452.034 524.247 452.134 524.184C453.066 523.659 455.791 525.466 456.102 525.723C456.133 525.749 456.158 525.784 456.172 525.825C456.186 525.866 456.19 525.91 456.182 525.953C456.176 525.997 456.159 526.037 456.132 526.069C456.105 526.101 456.071 526.123 456.033 526.133C455.313 526.333 454.577 526.445 453.836 526.466ZM452.583 524.53C452.495 524.509 452.405 524.509 452.318 524.53C452.278 524.556 452.245 524.594 452.223 524.639C452.2 524.684 452.19 524.735 452.192 524.787C452.174 524.936 452.19 525.088 452.238 525.229C452.286 525.37 452.365 525.496 452.468 525.594C453.406 526.081 454.477 526.145 455.458 525.774C454.58 525.157 453.604 524.734 452.583 524.53Z" fill="#D7D7D7"/>
<path d="M455.986 526.146C455.957 526.156 455.924 526.156 455.894 526.146C455.02 525.62 453.341 523.582 453.514 522.518C453.543 522.355 453.622 522.208 453.738 522.103C453.853 521.998 453.997 521.94 454.147 521.941C454.298 521.915 454.453 521.927 454.6 521.976C454.747 522.025 454.883 522.109 454.997 522.223C455.975 523.107 456.147 525.825 456.147 525.941C456.147 525.98 456.138 526.019 456.122 526.055C456.106 526.09 456.083 526.121 456.055 526.146C456.033 526.15 456.009 526.15 455.986 526.146ZM454.284 522.3H454.25C453.985 522.3 453.962 522.466 453.951 522.53C453.847 523.146 454.917 524.697 455.791 525.428C455.731 524.359 455.382 523.336 454.79 522.492C454.717 522.421 454.631 522.37 454.537 522.341C454.444 522.312 454.346 522.307 454.25 522.325L454.284 522.3Z" fill="#D7D7D7"/>
<path d="M403.179 526.466C402.457 526.541 401.734 526.337 401.132 525.889C400.999 525.754 400.897 525.586 400.833 525.399C400.769 525.212 400.745 525.011 400.764 524.812C400.764 524.691 400.794 524.571 400.851 524.467C400.907 524.363 400.989 524.279 401.086 524.223C402.109 523.582 405.502 525.505 405.881 525.722C405.919 525.742 405.951 525.775 405.969 525.817C405.988 525.859 405.994 525.907 405.985 525.953C405.98 525.999 405.961 526.042 405.932 526.074C405.903 526.107 405.865 526.127 405.824 526.133C404.954 526.34 404.068 526.451 403.179 526.466ZM401.649 524.53C401.523 524.525 401.397 524.551 401.281 524.607C401.243 524.632 401.211 524.667 401.189 524.71C401.166 524.753 401.155 524.801 401.155 524.851C401.138 524.981 401.152 525.115 401.194 525.238C401.236 525.361 401.306 525.471 401.396 525.556C401.914 526.069 403.305 526.158 405.168 525.812C404.068 525.168 402.878 524.735 401.649 524.53Z" fill="#D7D7D7"/>
<path d="M405.789 526.146H405.709C404.685 525.633 402.672 523.582 402.833 522.543C402.833 522.3 403.029 521.979 403.569 521.928C403.774 521.894 403.982 521.91 404.181 521.974C404.379 522.038 404.563 522.149 404.72 522.3C405.789 523.287 406.008 525.812 406.019 525.928C406.024 525.965 406.019 526.003 406.005 526.037C405.99 526.072 405.967 526.1 405.939 526.12C405.893 526.149 405.84 526.158 405.789 526.146ZM403.731 522.3H403.65C403.293 522.3 403.27 522.492 403.259 522.556C403.167 523.184 404.536 524.787 405.559 525.479C405.46 524.402 405.057 523.388 404.409 522.582C404.213 522.418 403.975 522.328 403.731 522.325V522.3Z" fill="#D7D7D7"/>
</svg>
