<svg width="66" height="93" viewBox="0 0 66 93" fill="none" xmlns="http://www.w3.org/2000/svg">
<path d="M47.0053 37.0893H18.8021C18.1597 37.0893 17.627 36.3364 17.627 35.4286C17.627 34.5207 18.1597 33.7679 18.8021 33.7679H47.0053C47.6477 33.7679 48.1804 34.5207 48.1804 35.4286C48.1804 36.3364 47.6477 37.0893 47.0053 37.0893Z" fill="black"/>
<path d="M42.3048 48.1607H23.5026C22.8602 48.1607 22.3275 47.4078 22.3275 46.5C22.3275 45.5921 22.8602 44.8393 23.5026 44.8393H42.3048C42.9472 44.8393 43.4799 45.5921 43.4799 46.5C43.4799 47.4078 42.9472 48.1607 42.3048 48.1607Z" fill="black"/>
<path d="M36.0374 59.2321H29.77C29.1276 59.2321 28.5948 58.4793 28.5948 57.5714C28.5948 56.6636 29.1276 55.9107 29.77 55.9107H36.0374C36.6798 55.9107 37.2125 56.6636 37.2125 57.5714C37.2125 58.4793 36.6798 59.2321 36.0374 59.2321Z" fill="black"/>
</svg>
