<svg width="108" height="99" viewBox="0 0 108 99" fill="none" xmlns="http://www.w3.org/2000/svg">
<ellipse cx="54" cy="49.5" rx="54" ry="49.5" fill="#8687E7"/>
<path d="M67.5001 51.0469H40.5001C39.5776 51.0469 38.8126 50.3456 38.8126 49.5C38.8126 48.6544 39.5776 47.9531 40.5001 47.9531H67.5001C68.4226 47.9531 69.1876 48.6544 69.1876 49.5C69.1876 50.3456 68.4226 51.0469 67.5001 51.0469Z" fill="white"/>
<path d="M54.0001 63.4219C53.0776 63.4219 52.3126 62.7206 52.3126 61.875V37.125C52.3126 36.2794 53.0776 35.5781 54.0001 35.5781C54.9226 35.5781 55.6876 36.2794 55.6876 37.125V61.875C55.6876 62.7206 54.9226 63.4219 54.0001 63.4219Z" fill="white"/>
</svg>
