<svg width="14" height="15" viewBox="0 0 14 15" fill="none" xmlns="http://www.w3.org/2000/svg">
<path d="M11.6667 5.16667L8.16666 2.09833C7.84581 1.81136 7.43045 1.65271 6.99999 1.65271C6.56953 1.65271 6.15417 1.81136 5.83333 2.09833L2.33333 5.16667C2.14804 5.33238 2.00019 5.53566 1.8996 5.76298C1.79902 5.99029 1.74802 6.23643 1.74999 6.485V11.5833C1.74999 12.0475 1.93437 12.4926 2.26256 12.8208C2.59075 13.149 3.03587 13.3333 3.49999 13.3333H10.5C10.9641 13.3333 11.4092 13.149 11.7374 12.8208C12.0656 12.4926 12.25 12.0475 12.25 11.5833V6.47917C12.2511 6.23158 12.1997 5.98656 12.0992 5.76031C11.9986 5.53406 11.8512 5.33172 11.6667 5.16667ZM8.16666 12.1667H5.83333V9.25C5.83333 9.09529 5.89479 8.94692 6.00418 8.83752C6.11358 8.72812 6.26195 8.66667 6.41666 8.66667H7.58333C7.73804 8.66667 7.88641 8.72812 7.99581 8.83752C8.1052 8.94692 8.16666 9.09529 8.16666 9.25V12.1667ZM11.0833 11.5833C11.0833 11.738 11.0219 11.8864 10.9125 11.9958C10.8031 12.1052 10.6547 12.1667 10.5 12.1667H9.33333V9.25C9.33333 8.78587 9.14895 8.34075 8.82076 8.01256C8.49257 7.68437 8.04746 7.5 7.58333 7.5H6.41666C5.95253 7.5 5.50741 7.68437 5.17922 8.01256C4.85103 8.34075 4.66666 8.78587 4.66666 9.25V12.1667H3.49999C3.34528 12.1667 3.19691 12.1052 3.08752 11.9958C2.97812 11.8864 2.91666 11.738 2.91666 11.5833V6.47917C2.91677 6.39634 2.93451 6.31449 2.9687 6.23905C3.0029 6.16362 3.05277 6.09633 3.11499 6.04167L6.61499 2.97917C6.72145 2.88565 6.8583 2.83407 6.99999 2.83407C7.14169 2.83407 7.27854 2.88565 7.38499 2.97917L10.885 6.04167C10.9472 6.09633 10.9971 6.16362 11.0313 6.23905C11.0655 6.31449 11.0832 6.39634 11.0833 6.47917V11.5833Z" fill="#A30000"/>
</svg>
