<svg width="14" height="15" viewBox="0 0 14 15" fill="none" xmlns="http://www.w3.org/2000/svg">
<path d="M12.5358 6.44417L11.9525 6.12334L6.7025 3.20667H6.63833C6.60257 3.19155 6.56546 3.17983 6.5275 3.17167H6.41667H6.31167C6.27181 3.17984 6.23277 3.19155 6.195 3.20667H6.13083L0.880833 6.12334C0.79106 6.17421 0.716388 6.24799 0.664437 6.33715C0.612485 6.42631 0.585114 6.52765 0.585114 6.63084C0.585114 6.73402 0.612485 6.83537 0.664437 6.92452C0.716388 7.01368 0.79106 7.08746 0.880833 7.13834L2.33333 7.94334V10.7083C2.33333 11.1725 2.51771 11.6176 2.8459 11.9458C3.17409 12.274 3.6192 12.4583 4.08333 12.4583H8.75C9.21413 12.4583 9.65925 12.274 9.98744 11.9458C10.3156 11.6176 10.5 11.1725 10.5 10.7083V7.94334L11.6667 7.29V8.95834C11.6667 9.11305 11.7281 9.26142 11.8375 9.37081C11.9469 9.48021 12.0953 9.54167 12.25 9.54167C12.4047 9.54167 12.5531 9.48021 12.6625 9.37081C12.7719 9.26142 12.8333 9.11305 12.8333 8.95834V6.95167C12.8332 6.8483 12.8055 6.74684 12.7532 6.65767C12.701 6.5685 12.6259 6.49482 12.5358 6.44417ZM9.33333 10.7083C9.33333 10.863 9.27188 11.0114 9.16248 11.1208C9.05308 11.2302 8.90471 11.2917 8.75 11.2917H4.08333C3.92862 11.2917 3.78025 11.2302 3.67085 11.1208C3.56146 11.0114 3.5 10.863 3.5 10.7083V8.59084L6.13083 10.0492L6.21833 10.0842H6.27083C6.31925 10.0903 6.36825 10.0903 6.41667 10.0842C6.46509 10.0903 6.51408 10.0903 6.5625 10.0842H6.615C6.64597 10.0776 6.67557 10.0658 6.7025 10.0492L9.33333 8.59084V10.7083ZM6.41667 8.87667L2.36833 6.625L6.41667 4.37334L10.465 6.625L6.41667 8.87667Z" fill="#0055A3"/>
</svg>
