<svg width="58" height="52" viewBox="0 0 58 52" fill="none" xmlns="http://www.w3.org/2000/svg">
<path d="M29 27.285C21.3391 27.285 15.1041 21.7638 15.1041 14.98C15.1041 8.1962 21.3391 2.675 29 2.675C36.6608 2.675 42.8958 8.1962 42.8958 14.98C42.8958 21.7638 36.6608 27.285 29 27.285ZM29 5.885C23.345 5.885 18.7291 9.9724 18.7291 14.98C18.7291 19.9876 23.345 24.075 29 24.075C34.655 24.075 39.2708 19.9876 39.2708 14.98C39.2708 9.9724 34.655 5.885 29 5.885Z" fill="white" fill-opacity="0.98"/>
<path d="M49.7595 48.685C48.7687 48.685 47.947 47.9574 47.947 47.08C47.947 39.697 39.4404 33.705 29.0004 33.705C18.5604 33.705 10.0537 39.697 10.0537 47.08C10.0537 47.9574 9.23204 48.685 8.24121 48.685C7.25038 48.685 6.42871 47.9574 6.42871 47.08C6.42871 37.9422 16.5545 30.495 29.0004 30.495C41.4462 30.495 51.572 37.9422 51.572 47.08C51.572 47.9574 50.7504 48.685 49.7595 48.685Z" fill="white" fill-opacity="0.98"/>
</svg>
