<svg width="58" height="52" viewBox="0 0 58 52" fill="none" xmlns="http://www.w3.org/2000/svg">
<path d="M19.3334 12.305C18.3425 12.305 17.5209 11.5774 17.5209 10.7V4.27999C17.5209 3.40259 18.3425 2.67499 19.3334 2.67499C20.3242 2.67499 21.1459 3.40259 21.1459 4.27999V10.7C21.1459 11.5774 20.3242 12.305 19.3334 12.305Z" fill="white" fill-opacity="0.98"/>
<path d="M38.6666 12.305C37.6758 12.305 36.8541 11.5774 36.8541 10.7V4.27999C36.8541 3.40259 37.6758 2.67499 38.6666 2.67499C39.6575 2.67499 40.4791 3.40259 40.4791 4.27999V10.7C40.4791 11.5774 39.6575 12.305 38.6666 12.305Z" fill="white" fill-opacity="0.98"/>
<path d="M20.5417 31.03C20.2275 31.03 19.9133 30.9658 19.6233 30.8588C19.3092 30.7518 19.0675 30.602 18.8258 30.4094C18.3908 30.0028 18.125 29.4678 18.125 28.89C18.125 28.6118 18.1975 28.3336 18.3183 28.0768C18.4392 27.82 18.6083 27.5846 18.8258 27.3706C19.0675 27.178 19.3092 27.0282 19.6233 26.9212C20.4933 26.6002 21.5808 26.7714 22.2575 27.3706C22.6925 27.7772 22.9583 28.3336 22.9583 28.89C22.9583 29.0184 22.9342 29.1682 22.91 29.318C22.8858 29.4464 22.8375 29.5748 22.765 29.7032C22.7167 29.8316 22.6442 29.96 22.5475 30.0884C22.475 30.1954 22.3542 30.3024 22.2575 30.4094C21.7983 30.7946 21.17 31.03 20.5417 31.03Z" fill="white" fill-opacity="0.98"/>
<path d="M29 31.03C28.6859 31.03 28.3717 30.9658 28.0817 30.8588C27.7675 30.7518 27.5259 30.602 27.2842 30.4094C26.8492 30.0028 26.5834 29.4678 26.5834 28.89C26.5834 28.6118 26.6559 28.3336 26.7767 28.0768C26.8975 27.82 27.0667 27.5846 27.2842 27.3706C27.5259 27.178 27.7675 27.0282 28.0817 26.9212C28.9517 26.5788 30.0392 26.7714 30.7159 27.3706C31.1509 27.7772 31.4167 28.3336 31.4167 28.89C31.4167 29.0184 31.3925 29.1682 31.3684 29.318C31.3442 29.4464 31.2959 29.5748 31.2234 29.7032C31.175 29.8316 31.1025 29.96 31.0059 30.0884C30.9334 30.1954 30.8125 30.3024 30.7159 30.4094C30.2567 30.7946 29.6284 31.03 29 31.03Z" fill="white" fill-opacity="0.98"/>
<path d="M37.4583 31.03C37.1441 31.03 36.83 30.9658 36.54 30.8588C36.2258 30.7518 35.9841 30.602 35.7425 30.4094C35.6458 30.3024 35.5491 30.1954 35.4525 30.0884C35.3558 29.96 35.2833 29.8316 35.235 29.7032C35.1625 29.5748 35.1141 29.4464 35.09 29.318C35.0658 29.1682 35.0416 29.0184 35.0416 28.89C35.0416 28.3336 35.3075 27.7772 35.7425 27.3706C35.9841 27.178 36.2258 27.0282 36.54 26.9212C37.4341 26.5788 38.4975 26.7714 39.1741 27.3706C39.6091 27.7772 39.875 28.3336 39.875 28.89C39.875 29.0184 39.8508 29.1682 39.8266 29.318C39.8025 29.4464 39.7541 29.5748 39.6816 29.7032C39.6333 29.8316 39.5608 29.96 39.4641 30.0884C39.3916 30.1954 39.2708 30.3024 39.1741 30.4094C38.715 30.7946 38.0866 31.03 37.4583 31.03Z" fill="white" fill-opacity="0.98"/>
<path d="M20.5417 38.52C20.2275 38.52 19.9133 38.4558 19.6233 38.3488C19.3333 38.2418 19.0675 38.092 18.8258 37.8994C18.3908 37.4928 18.125 36.9364 18.125 36.38C18.125 36.1018 18.1975 35.8236 18.3183 35.5668C18.4392 35.2886 18.6083 35.0532 18.8258 34.8606C19.72 34.0688 21.3633 34.0688 22.2575 34.8606C22.6925 35.2672 22.9583 35.8236 22.9583 36.38C22.9583 36.9364 22.6925 37.4928 22.2575 37.8994C21.7983 38.2846 21.17 38.52 20.5417 38.52Z" fill="white" fill-opacity="0.98"/>
<path d="M29 38.52C28.3717 38.52 27.7434 38.2846 27.2842 37.8994C26.8492 37.4928 26.5834 36.9364 26.5834 36.38C26.5834 36.1018 26.6559 35.8236 26.7767 35.5668C26.8975 35.2886 27.0667 35.0532 27.2842 34.8606C28.1784 34.0688 29.8217 34.0688 30.7159 34.8606C30.9334 35.0532 31.1025 35.2886 31.2234 35.5668C31.3442 35.8236 31.4167 36.1018 31.4167 36.38C31.4167 36.9364 31.1509 37.4928 30.7159 37.8994C30.2567 38.2846 29.6284 38.52 29 38.52Z" fill="white" fill-opacity="0.98"/>
<path d="M37.4583 38.5201C36.83 38.5201 36.2016 38.2846 35.7425 37.8994C35.525 37.7068 35.3558 37.4715 35.235 37.1933C35.1141 36.9365 35.0416 36.6583 35.0416 36.3801C35.0416 36.1019 35.1141 35.8237 35.235 35.5669C35.3558 35.2887 35.525 35.0533 35.7425 34.8607C36.2983 34.3685 37.1441 34.133 37.9175 34.2828C38.0866 34.3042 38.2316 34.347 38.3766 34.4112C38.5216 34.454 38.6666 34.5183 38.8116 34.6039C38.9325 34.6681 39.0533 34.7751 39.1741 34.8607C39.6091 35.2673 39.875 35.8237 39.875 36.3801C39.875 36.9365 39.6091 37.4928 39.1741 37.8994C38.715 38.2846 38.0866 38.5201 37.4583 38.5201Z" fill="white" fill-opacity="0.98"/>
<path d="M49.5417 21.0575H8.45837C7.46754 21.0575 6.64587 20.3299 6.64587 19.4525C6.64587 18.5751 7.46754 17.8475 8.45837 17.8475H49.5417C50.5325 17.8475 51.3542 18.5751 51.3542 19.4525C51.3542 20.3299 50.5325 21.0575 49.5417 21.0575Z" fill="white" fill-opacity="0.98"/>
<path d="M38.6667 48.685H19.3333C10.5125 48.685 5.4375 44.191 5.4375 36.38V18.19C5.4375 10.379 10.5125 5.88501 19.3333 5.88501H38.6667C47.4875 5.88501 52.5625 10.379 52.5625 18.19V36.38C52.5625 44.191 47.4875 48.685 38.6667 48.685ZM19.3333 9.09501C12.4217 9.09501 9.0625 12.0696 9.0625 18.19V36.38C9.0625 42.5004 12.4217 45.475 19.3333 45.475H38.6667C45.5783 45.475 48.9375 42.5004 48.9375 36.38V18.19C48.9375 12.0696 45.5783 9.09501 38.6667 9.09501H19.3333Z" fill="white" fill-opacity="0.98"/>
</svg>
