<svg width="59" height="52" viewBox="0 0 59 52" fill="none" xmlns="http://www.w3.org/2000/svg">
<path d="M29.4167 48.685C15.0858 48.685 3.4375 38.3702 3.4375 25.68C3.4375 12.9898 15.0858 2.675 29.4167 2.675C43.7475 2.675 55.3958 12.9898 55.3958 25.68C55.3958 38.3702 43.7475 48.685 29.4167 48.685ZM29.4167 5.885C17.0917 5.885 7.0625 14.766 7.0625 25.68C7.0625 36.594 17.0917 45.475 29.4167 45.475C41.7417 45.475 51.7708 36.594 51.7708 25.68C51.7708 14.766 41.7417 5.885 29.4167 5.885Z" fill="white" fill-opacity="0.98"/>
<path d="M38.3825 34.0902C38.0683 34.0902 37.7541 34.026 37.4641 33.8548L29.9725 29.8958C28.1116 28.9114 26.7341 26.75 26.7341 24.8454V16.0714C26.7341 15.194 27.5558 14.4664 28.5466 14.4664C29.5375 14.4664 30.3591 15.194 30.3591 16.0714V24.8454C30.3591 25.6158 31.0841 26.75 31.8333 27.1352L39.325 31.0942C40.195 31.5436 40.4608 32.528 39.9533 33.2984C39.5908 33.812 38.9866 34.0902 38.3825 34.0902Z" fill="white" fill-opacity="0.98"/>
</svg>
