<svg width="14" height="15" viewBox="0 0 14 15" fill="none" xmlns="http://www.w3.org/2000/svg">
<path d="M3.00415 13.7708C2.76498 13.7708 2.56665 13.5725 2.56665 13.3333V1.66666C2.56665 1.4275 2.76498 1.22916 3.00415 1.22916C3.24332 1.22916 3.44165 1.4275 3.44165 1.66666V13.3333C3.44165 13.5725 3.24332 13.7708 3.00415 13.7708Z" fill="white" fill-opacity="0.87"/>
<path d="M9.53748 10.2708H3.00415C2.76498 10.2708 2.56665 10.0725 2.56665 9.83334C2.56665 9.59417 2.76498 9.39584 3.00415 9.39584H9.53748C10.1733 9.39584 10.4708 9.22667 10.5292 9.08084C10.5875 8.935 10.5 8.60834 10.045 8.15917L9.34498 7.45917C9.05915 7.20834 8.88415 6.82917 8.86665 6.40917C8.84915 5.96584 9.02415 5.52834 9.34498 5.2075L10.045 4.5075C10.4767 4.07584 10.6108 3.72584 10.5467 3.57417C10.4825 3.4225 10.15 3.27084 9.53748 3.27084H3.00415C2.75915 3.27084 2.56665 3.0725 2.56665 2.83334C2.56665 2.59417 2.76498 2.39584 3.00415 2.39584H9.53748C10.815 2.39584 11.2233 2.92667 11.3575 3.24167C11.4858 3.55667 11.5733 4.22167 10.6633 5.13167L9.96332 5.83167C9.81748 5.9775 9.73582 6.18167 9.74165 6.38584C9.74748 6.56084 9.81748 6.71834 9.93998 6.82917L10.6633 7.54667C11.5558 8.43917 11.4683 9.10417 11.34 9.425C11.2058 9.73417 10.7917 10.2708 9.53748 10.2708Z" fill="white" fill-opacity="0.87"/>
</svg>
