<svg width="59" height="52" viewBox="0 0 59 52" fill="none" xmlns="http://www.w3.org/2000/svg">
<path d="M49.0134 14.5948L35.0934 5.97058C31.2992 3.61659 25.4751 3.74499 21.8259 6.24879L9.71841 14.6162C7.30174 16.2854 5.39258 19.7094 5.39258 22.4058V37.1718C5.39258 42.6288 10.3951 47.08 16.5576 47.08H42.6092C48.7717 47.08 53.7742 42.6502 53.7742 37.1932V22.684C53.7742 19.795 51.6717 16.2426 49.0134 14.5948ZM31.3959 38.52C31.3959 39.3974 30.5742 40.125 29.5834 40.125C28.5926 40.125 27.7709 39.3974 27.7709 38.52V32.1C27.7709 31.2226 28.5926 30.495 29.5834 30.495C30.5742 30.495 31.3959 31.2226 31.3959 32.1V38.52Z" fill="white" fill-opacity="0.87"/>
</svg>
